<svg version="1" xmlns="http://www.w3.org/2000/svg" width="1301.333" height="1301.333" viewBox="0 0 976.000000 976.000000"><path d="M486.3 117.7c-1 1.5-3 5.2-4.3 8-1.4 2.9-2.8 5.3-3.2 5.3-.5 0-.8.4-.8 1 0 1.5-12.2 21-13.1 21-.5 0-.9.5-.9 1.1 0 .9-6.2 10.5-9.3 14.4-.4.5-3.7 5-7.3 10-3.6 4.9-7.5 10.3-8.7 11.9-1.8 2.4-9.2 12.5-16.4 22.5-1 1.4-2.8 3.7-4 5.2-1.3 1.5-2.3 3.1-2.3 3.7 0 .6-.3 1.2-.7 1.4-1.2.5-13.3 18.5-13.3 19.7 0 .6-.4 1.1-.9 1.1s-1.3 1-1.7 2.2c-.4 1.3-1 2.5-1.4 2.8-1.1.8-12.2 21.8-14.7 28-1.2 3-1.9 5.7-1.5 6.1.4.3 4.5 3.2 9.2 6.4 4.7 3.2 9 6.4 9.6 6.9.7.6 3.1 2.7 5.5 4.6 16.6 13.4 37 37.1 49.9 58 9.3 15.2 19.7 36.9 25.1 52 1.2 3.6 2.7 7.1 3.2 7.8.5.7.7 1.5.4 1.9-.4.3-.3 1.1.2 1.7.5.6 1.6 3.8 2.6 7.1 1.7 5.9 2.8 6.1 3.8.9.2-1.1.6-2.6.9-3.4.3-.8 2.4-7.4 4.7-14.5 2.4-7.2 5.1-14.8 6.1-17 1-2.2 2.8-6.5 4.1-9.5 3.2-7.7 12.8-26.2 14.5-28.1.8-.8 1.4-1.9 1.4-2.3 0-1 12.8-19.7 14.4-21.1.6-.6 2.4-2.8 4-5 3.4-4.6 24.5-25.8 29.5-29.5 1.8-1.4 4.7-3.6 6.5-5 1.7-1.4 6.4-4.8 10.4-7.5 3.9-2.7 7.2-5 7.2-5.3 0-.7-8.4-18.7-9.4-20.2-.6-.8-1.6-2.4-2.2-3.5-4.1-7.6-6.6-11.9-10.6-18.1-4.8-7.4-23.7-34.5-24.7-35.4-.3-.3-2.2-2.8-4.1-5.5-1.9-2.8-4.2-5.9-5.2-6.9-1-1.1-1.8-2.3-1.8-2.7 0-.4-.6-1.4-1.3-2.1-.7-.7-3.8-4.7-6.7-8.8-3-4.1-5.7-7.7-6-8-.3-.3-.9-1.2-1.5-2.1-.5-.9-5.2-7.9-10.3-15.4-5.2-7.6-9.8-14.8-10.3-16.1-.4-1.3-1.3-2.4-1.9-2.4-.5 0-1-.8-1-1.7 0-.9-.6-2.4-1.4-3.2-.7-.9-2.9-4.7-4.9-8.4l-3.5-6.8-1.9 2.8zM170 232.7c0 1 .5 3.6 1.1 5.8 1.5 6.2 1.6 6.7 2.4 11.5.3 2.5.8 5.7 1.1 7.1.4 2.8 1.3 9.5 1.9 13.9.2 1.4.6 5.4.9 9 .3 3.6.8 9 1.1 12 .3 3 .7 8.6 1 12.5.2 3.8.7 10.9 1 15.8.3 4.8.8 12 1 16 1.2 21 1.6 25.4 1.9 27.4.3 1.2.8 5.3 1.2 9 .9 9.1 1.2 12.1 1.9 16.8 1.1 7.6 4.6 24 6.7 31.3l2.1 7.3 8.1-.8c10.1-1 37.7-1 47.1-.1 5.9.6 13.1 1.8 25.5 4.2 7.5 1.5 15 3.5 24.5 6.7 3.3 1.2 6.5 2.2 7 2.3 1.4.2 7.2 2.5 12.2 4.7 2.4 1.1 4.5 1.9 4.8 1.9 1.2 0 27.5 13.2 30.9 15.5 2 1.4 3.9 2.5 4.2 2.5.3 0 4 2.2 8.3 5 8.5 5.4 9.6 5.9 8.1 3.2-3-5.5-11.5-27.4-15.5-40.2-5.9-18.8-9.3-35.4-11.1-55-1.7-17.7-.7-39.4 2.7-58.7.6-3.5 1.1-6.6 1.1-7 0-.5.4-1.5.9-2.4.4-.9 1.1-3.1 1.4-5 .9-4.9 2.7-11.2 3.7-12.5 1.1-1.6-.4-2.7-10.2-7.2-11.5-5.3-27.4-11.2-38.7-14.3-1.8-.5-5-1.4-7-1.9-2.1-.6-4.5-1.3-5.3-1.5-3.9-1.2-24.8-6.5-27-7-1.4-.2-4-.9-5.7-1.4-1.8-.5-3.3-.8-3.3-.5 0 .3-.8 0-1.7-.5-1-.5-3.1-1.1-4.8-1.4-1.6-.3-4.1-.9-5.5-1.2-1.4-.4-3.5-.7-4.7-.8-1.3-.1-2.3-.4-2.3-.8 0-.3-1.7-.9-3.7-1.2-3.1-.5-11.8-2.8-26.8-7.1-.5-.1-3-.8-5.5-1.5-7.2-2-24.1-8-32.4-11.5-4.7-2-4.6-2-4.6.1zM802 232.2c-8.2 3.7-11 4.8-12 4.8-.5 0-1.8.4-2.8 1-2 1.1-26.7 9-30.2 9.6-1.4.3-5 1.2-8 2-3 .9-6.5 1.8-7.7 2-1.2.2-3.4.9-4.8 1.4-1.4.5-2.5.7-2.5.4 0-.2-.8 0-1.7.5-1 .5-3.1 1.1-4.8 1.4-1.6.2-9.7 2.1-18 4.2-17.8 4.4-21.5 5.2-25 5.9-.5.1-1.6.5-2.3.9-.7.5-2.5 1.1-4 1.3-15.5 2.7-63.2 21-61.6 23.6 1.2 1.9 7.1 26.1 7.9 32.3.2 1.1.6 3.8.9 6.1 2.7 17.4 2.5 49.1-.4 66.4-.5 3-1.1 7.1-1.4 9-.8 4.9-1.6 9.2-2.1 11-.2.8-.7 2.8-.9 4.5-.3 1.6-1.5 6.1-2.6 10-1.2 3.8-2.3 7.9-2.5 9-.3 1.1-2.1 6.5-4.1 12-2 5.5-3.6 10.6-3.7 11.2 0 .7-.4 1.3-.9 1.3-.4 0-.8.7-.8 1.5s-1.1 3.8-2.4 6.5c-1.3 2.8-2.2 5-2 5 .8 0 4.9-2.5 8.5-5.3 2-1.5 4-2.7 4.3-2.7.4 0 1.9-.8 3.4-1.9 5.4-3.6 8.7-5.5 9.5-5.3.4.1.7-.2.7-.7 0-.8 31.4-17 34.1-17.5.8-.2 2.8-.9 4.4-1.5 12.1-5.1 34.3-11.5 43-12.5.6-.1 3-.5 5.5-1s5.9-1.1 7.5-1.3c4.8-.7 47.5-1.1 47.5-.4 0 .3 2.4.7 5.3.9l5.4.3 2.1-7.3c1.7-6 3.4-13.3 5.7-24.8.1-.8.6-4 1-7s.9-6.3 1.1-7.2c.1-1 .6-4.8.9-8.5.3-3.7.8-8 1-9.6.2-1.5.6-7.1 1-12.5.3-5.3.8-12 1-14.7.3-2.8.7-9.7 1-15.5.3-5.8.7-13.2 1-16.5 1.2-15.2 1.6-19.4 2.2-25.5.7-7.7 1.1-10.5 1.3-10.5.1 0 .3-1.6.4-3.5.5-5.4 1.8-14.4 2.1-15 .2-.3.6-2.4.9-4.6.4-2.2.8-4.9 1.1-5.9 2-9.6 2.1-9.3-2.5-7.3zM377.5 310.2c-.2.7-.6 2.9-.9 4.8-.3 1.9-1 5-1.5 6.9-.6 1.8-1 3.6-.9 4 0 .3-.1.8-.2 1.1-1 2.7-2.3 19.3-2.3 31.5-.1 19.6 1.2 30.9 5.8 50.2.9 4 1.7 7.5 1.7 7.8 0 .2 2 6.2 4.4 13.2 2.4 7 4.6 13.5 4.8 14.4.3 1 1.7 4.3 3.2 7.5 1.4 3.3 4.2 9.3 6.1 13.4 1.8 4.1 3.7 8.2 4.2 9.1.5.8 3 5.5 5.5 10.5 4.5 8.5 7.7 14.3 11.8 20.9 1 1.6 2.5 4.5 3.5 6.2.9 1.8 2 3.3 2.5 3.3.4 0 .8.5.8 1 0 1.1 10.6 17.6 12.8 19.8.6.7 1.2 1.7 1.2 2.1 0 .4.9 1.9 2 3.2 1.2 1.2 3.1 3.9 4.3 5.9 1.2 1.9 2.5 3.9 2.9 4.5 5.5 6.9 8.8 11.4 8.8 11.9 0 .3.8 1.4 1.8 2.4.9 1.1 5.1 6.3 9.2 11.7 4.1 5.4 8 10.3 8.6 10.9.6.6 1.9 2.4 3 4.1l1.9 2.9.5-4.4c.6-5.8.4-42.7-.4-55-1.1-16.8-3-36.1-4.1-40.6-.2-1.1-.7-4.5-1.1-7.5-.3-3-1.5-9.5-2.6-14.4-1.1-5-2.1-9.9-2.3-11-.3-2.1-2.1-9.4-3.9-16-3.1-11.4-9.1-29.2-11.9-35.5-9.5-21.4-23.8-48-25.9-48-.4 0-.8-.5-.8-1 0-.9-3.5-6.5-5-8-.3-.3-3-3.7-6.1-7.5-6.8-8.4-21.4-23.5-22.9-23.5-.5 0-1-.4-1-.9 0-.9-15.3-13.1-16.4-13.1-.4 0-.9.6-1.1 1.2zM589 314.9c-18.6 14.4-36.1 34.6-48.7 56.1-5.4 9.3-13 24.7-14.8 30-.1.3-.7 1.8-1.4 3.5-.7 1.6-2.4 6.1-3.8 10-1.3 3.8-2.7 7.7-3 8.5-.3.8-.7 1.9-.9 2.5-.1.5-1.6 6-3.3 12.1-1.7 6.1-4 15.3-5.2 20.5-1.1 5.2-2.2 10.1-2.4 11-.2.9-.6 3.4-.9 5.5-.3 2.2-.8 5-1.1 6.4-.2 1.4-.7 4.1-.9 6-.3 1.9-.8 4.5-1 5.7-.3 1.2-.7 5-1.1 8.4-.4 3.5-.8 6.6-1 6.9-.2.3-.6 3.5-.9 7-.4 3.6-.8 9-1.1 12-1.6 17.8-2.1 26.2-3 50.5l-.6 18 4-4.4c2.3-2.4 4.1-4.5 4.1-4.7 0-.2 1.5-1.9 3.3-3.8 4.1-4.3 18.4-21.9 21.6-26.5 1.4-2 2.7-3.8 3-4.1 1.3-1.1 11.2-15 17.5-24.5 3.6-5.5 7-10.5 7.6-11.2.5-.7 1-1.5 1-1.7 0-.3 1.5-2.9 3.2-5.8 5.9-9.5 20-37.3 24.1-47.3 1.3-3.3 2.8-6.9 3.2-8 .5-1.1.9-2.2 1-2.5 0-.3 1.2-3.7 2.5-7.5 1.3-3.9 2.5-7.2 2.5-7.5 0-.3.8-3 1.8-6 6.9-22.5 10.1-45.2 10-70.5-.1-16-.5-21.1-2.9-34.5-2.7-14.6-2.9-15.3-3.9-15.6-.6-.2-4.4 2.3-8.5 5.5zM174.5 450.2c-3.8 1-7.4 2.1-8 2.2-.5.2-1.7.6-2.5.9-.8.3-5.1 1.8-9.5 3.3-4.3 1.5-9.5 3.4-11.5 4.2-1.9.9-3.7 1.6-4 1.7-.3.1-1.7.5-3.2.9-1.6.5-2.8 1.2-2.8 1.7s-.5.9-1.2.9c-1.4 0-5.2 1.7-23.8 10.8-7.4 3.6-13.7 6.6-14 6.7-.3 0-5.2 2.5-11 5.5s-11.6 5.9-13 6.4c-1.4.5-3.2 1.4-4 2.1-.8.7-2.5 1.6-3.8 2-1.3.4-5.4 2.2-9 4-3.7 1.8-9.6 4.5-13.2 5.9-6.6 2.7-7.6 3.2-14 5.9-1.9.8-7.1 2.7-11.5 4.2s-8.7 3-9.5 3.3c-2 .7-2.8.9-4.1 1.1-.6 0 3.1 3.5 8.3 7.7C26.1 545.3 36.5 555.2 64 584c41.8 43.6 57 57.7 76.2 70.6 4 2.7 7.5 5.1 7.8 5.4.6.6 4 2.5 9.3 5.2 2.3 1.2 5.4 3 7 4 1.5 1.1 2.7 1.7 2.7 1.4 0-.3 2.8.9 6.1 2.5 11.7 5.8 36.7 13.1 52.4 15.3 2.2.3 6.3.9 9 1.2 10.8 1.5 39.5.9 53.5-1.2 5.1-.7 17.3-2.6 19-2.9 1.8-.4 19.9-4.5 22-5 10-2.5 39.7-12.3 45.7-15.1 1.7-.7 3.4-1.4 3.8-1.4 3.2 0 57.2-25.1 79-36.7l7-3.7-3.5-.8c-1.9-.4-4.6-1-6-1.3-1.4-.2-3.6-.7-5-1-1.4-.3-3.6-.7-5-1-1.4-.3-3.6-.7-5-1.1-1.4-.3-4.3-1-6.5-1.4-2.2-.5-9.4-2.3-16-4-6.6-1.7-12.7-3.3-13.5-3.5-.8-.2-1.5-.4-1.5-.5 0-.1-.9-.3-2-.5-1.1-.3-7.8-2.2-15-4.4-69.5-21-118.2-47.4-153.5-83.1-4.1-4.2-8.6-9-10-10.6-14-16.5-23-30.3-32.3-49.6-2-4.3-3.7-8.2-3.7-8.7 0-1.2-2.9-4.1-3.8-4-.4.1-3.8 1-7.7 2.1zM789.9 452.7c-6.4 15.1-20.3 39-27.8 47.9-1.4 1.7-4.4 5.3-6.6 8-4.3 5.3-23.5 24.8-30 30.4-2.1 1.9-8 6.5-13 10.2-4.9 3.7-9.4 7.1-10 7.5-.9.7-12.8 8.4-21.7 14-2.1 1.3-3.8 2-3.8 1.6 0-.5-.4-.3-.8.3-.7 1.2-13 7.6-25.7 13.4-14.7 6.7-38.9 15.8-55 20.6-18.5 5.4-50.9 13.1-54.2 12.7-.7 0-1.3.3-1.3.9 0 .5-.4.7-.8.4-.4-.2-4 .2-8.1.9-4 .8-9.6 1.7-12.4 2-5.8.7-8.1 2.1-5.1 3.1 1 .4 4.4 2.3 7.4 4.2 10 6.4 37.8 20.7 54.5 28.2 2.2.9 6.1 2.7 8.7 3.9 2.6 1.1 5.2 2.1 5.8 2.1.6 0 1.8.4 2.8.9 5.5 2.8 25.4 9.9 35.5 12.6 3.1.8 8.2 2.2 11.2 3 6.4 1.7 24.4 5.5 28.9 6.1 1.7.2 4.2.6 5.6.9 2.8.5 9.3 1.2 19.5 2.1 8.4.7 35.8.7 40 0 1.7-.2 5.9-.8 9.5-1.1 14.4-1.4 37.6-7.3 52.5-13.2 17-6.8 41.4-20.9 52.7-30.5 1.4-1.3 3.5-3 4.5-3.8 10.1-8.3 14.7-12.6 28.2-26.1 8.6-8.6 22.8-23.1 31.5-32.3 26.1-27.4 35.5-36.5 51.8-49.8l11.6-9.6-10.7-3.5c-17.7-5.9-26.2-9.5-54-22.9C901 493 892.4 489 892 489c-.4 0-1.3-.7-2-1.5-.6-.8-1.5-1.4-1.8-1.3-.4.1-8.6-3.7-18.2-8.4-15.9-7.8-24.7-11.9-26-12.2-.3-.1-1-.4-1.5-.8-3-1.9-34.8-13.4-39.6-14.3-.9-.2-3.4-.8-5.5-1.4-5.4-1.5-5.3-1.6-7.5 3.6z"/><path d="M210 449.6c0 .9 7.3 15 9.8 18.8 1.5 2.3 3.2 5.1 3.8 6.3.7 1.2 1.7 2.8 2.3 3.5.7.7 3 3.8 5.2 6.8 12.4 17 31.5 34.9 51.4 48.1 5 3.3 9.5 6.3 10 6.7 3.4 2.6 33.5 18.3 33.5 17.5 0-.3 1.1.2 2.5 1.1 3.3 2.2 26.5 11.5 40 16.1 6.1 2 11.7 4 12.5 4.3.8.3 2 .6 2.7.8.6.1 4.7 1.3 9 2.7 15.3 4.9 39.7 11 64.4 16.2 6.3 1.3 12.8 2.7 14.4 3.1l2.8.7-2.8-3.9c-3.1-4.2-20.7-25.4-26.5-31.8-7.1-8.1-34.7-35.4-42-41.7-15.2-13.1-39.9-31.9-42-31.9-.5 0-1-.3-1-.8 0-.4-1-1.2-2.3-1.8-1.2-.6-5.3-3-9-5.3-10-6.2-30.8-16.3-41.7-20.4-5.2-1.9-10.4-3.8-11.5-4.3-1.1-.4-2.4-.8-3-.9-.5-.2-4.1-1.2-8-2.3-3.8-1.2-8.2-2.3-9.7-2.7-1.6-.3-4-.7-5.5-1-1.6-.3-3.5-.8-4.4-1.1-.9-.2-3.4-.7-5.5-1-2.2-.3-5.5-.7-7.4-1-4.4-.7-42-1.4-42-.8zM727.5 450c-2.2.4-6.2 1-9 1.4-2.7.3-6.1.8-7.5 1.1-1.4.4-3.6.8-5 1.1-1.4.3-6.3 1.6-11 3-4.7 1.3-9.2 2.6-10 2.9-8.3 2.2-29.1 11.8-43.4 19.9-12.7 7.2-38.4 24.7-44.2 30.1-.6.5-2.6 2.1-4.4 3.5-1.8 1.4-3.8 2.9-4.4 3.5-.6.5-4.3 3.7-8.1 7-18.6 15.7-54.5 51.7-72.2 72.3-5.7 6.5-6.3 7.6-3.5 6.8.9-.3 3.7-.8 6.2-1.1 2.5-.3 5.6-.8 7-1 1.4-.2 4.5-.7 7-1.1 2.4-.3 4.7-.7 5-.9.5-.3 5.1-1.1 11.5-2 2.8-.4 31-7.2 37-8.9 19.6-5.6 27.1-8.1 43-14.2 11.7-4.6 35.9-15.6 36.3-16.6.2-.5.8-.8 1.2-.8 1.3 0 19.2-10.4 25.1-14.6 2.7-1.9 5.3-3.4 5.8-3.4s1.1-.3 1.3-.8c.2-.4 3-2.7 6.3-5.1 15.5-11.5 34.9-30.2 44-42.6 1.7-2.2 3.2-4.2 3.6-4.5 1-.9 6.9-9.8 6.9-10.5 0-.3.8-1.5 1.8-2.6 1.1-1 2.5-3.2 3.3-4.7.8-1.4 3.1-5.8 5.2-9.6 2.5-4.7 3.4-7.2 2.6-7.6-1.5-1-32.3-.9-37.4 0zM228.5 751.8c-.2.3-1.9.5-3.7.6l-3.2.1-.1 54.3c0 47.5.2 54.2 1.5 54.3.8 0 3.2.2 5.3.3 4.7.3 6.1-.6 5.4-3.3-.3-1.2-.1-2.4.4-2.7.5-.3.7-1 .3-1.5-1.1-1.8-.6-26.4.6-30.9.7-2.5 1.3-5 1.4-5.5.3-2.1 6-12.9 8-15.4 9-10.8 15.7-14.4 21.3-11.3 4.5 2.5 5.1 5.4 4.9 24.6l-.1 17.9-3 .4c-14.6 2-16.7 20.9-3 26.8 5.4 2.4 12.2 0 15.9-5.6l2.6-3.8-.3-29-.2-28.9-3-3.7c-4.1-5.1-10.3-8.3-16.8-8.9-4.6-.3-6.4.1-11.6 2.7-3.5 1.7-8.7 5.5-11.7 8.5l-5.4 5.4-.1-3.3v-41.7l-2.4-.4c-1.4-.3-2.7-.3-3 0zm45.9 93.5c1.7 2.7-1.3 7.1-5 7.5-3.5.3-5.6-1.6-6-5.4-.4-3.5 5.1-7 8-5 1.1.7 2.5 2 3 2.9zM298.7 751.7c-.4.3-2 .6-3.5.5l-2.9-.1.1 54.6.1 54.6h4.5c2.5-.1 5.2-.1 6-.2 1.3-.1 1.5-2.5 1.5-16.9-.1-18.5.8-23.7 5.8-34.2 3.8-7.9 14.7-19.4 19.2-20.3 3.9-.7 10.3 2.8 11.2 6.1.3 1.4.6 9.3.6 17.6-.1 21.9.2 20.3-3.3 20.4-9 .2-14.9 11.7-10.5 20.2 1.3 2.5 7.5 8 7.5 6.6 0-.3 1.1-.1 2.5.4 5.1 1.9 13.7-3.4 15.3-9.4.5-1.7.8-15.3.7-30.1-.1-30.5-.2-30.8-8-36.4-10.8-7.8-22.5-5.8-34.6 6-3.2 3.1-6 5.1-6.2 4.5-.2-.6-.3-10.7-.3-22.4.1-18.4-.1-21.2-1.4-21-.8.1-2-.1-2.6-.4-.6-.4-1.4-.5-1.7-.1zm45.4 92.5c3 3.3.2 8.8-4.5 8.8-3 0-5.6-2.4-5.6-5.3 0-2.7.9-4 3.4-5.4 2.3-1.3 4.5-.7 6.7 1.9zM604.6 751.8c-.3.2-1.6.5-2.8.6l-2.3.1v108.9l5.3-.1c2.8 0 5.6-.1 6-.2.5-.1.9-7.9.9-17.4.1-18.9.2-19.9 3.1-27.4 7.1-18.7 21.1-30.7 29.2-25 4.1 2.9 4.6 5.3 4.5 24.1v17.9l-2.6.3c-7.4.7-13.4 7.5-12.7 14.2.6 5.1 1.1 6.4 2.8 8.3 6.8 7.4 18.1 6.5 22.7-1.8 2-3.6 2.1-5.2 2.1-31.5 0-15.6-.4-28-.9-28.4-.5-.3-.9-1.2-.9-2.1 0-2.1-6.5-8.2-10.7-9.9-10.6-4.5-20.9-1-32.5 10.8-2.1 2.1-3.9 3.8-4 3.8-.2 0-.3-10-.3-22.2v-22.2l-3.2-.7c-1.8-.3-3.5-.4-3.7-.1zm46.6 91.9c2 1.8 1.6 6.2-.8 8-4.5 3.3-10.1-.2-8.9-5.5 1-4.7 5.6-5.9 9.7-2.5zM531 769.5c0 14.6-.2 17.4-1.5 17.9-.9.3-3.8 2-6.4 3.8l-4.9 3.2.3 6.5c.2 3.6.3 6.8.4 7.1.1.2 1.8-1.2 3.9-3.2 3.1-3 7.2-5.8 8.4-5.8.2 0 .2 10.2.1 22.6-.2 21.1-.1 22.9 1.7 25.4 1.1 1.6 2 3.2 2 3.7s1.2 1.6 2.8 2.4c1.5.8 3 1.8 3.3 2.2.3.4 3.9 1.9 7.9 3.3 8.5 3 17.8 3.6 26.9 1.7 5.7-1.2 15.3-5.2 17.4-7.2.7-.7 1.1-5.9.8-12-.1-2.4-.1-2.4-1.8-.4-5 5.6-13.2 9.8-21.8 11-5 .8-5.8.8-10.8-.1-6.5-1-10.7-2.9-13.7-6.1l-2.5-2.7-.1-25.5c-.1-28.7-.7-26.4 7.8-27.6 4.9-.6 6 .2 4.9 3.9-3 10.6 7.8 20.7 17.9 16.6 5.9-2.4 9-6.8 9-12.6 0-7.6-4.4-12.8-12.8-15.2-5.5-1.6-17.4-2.3-23.7-1.3l-3 .4v-14.3c0-16.1.5-15.2-8.2-15l-4.3.1v17.2zm42 23.7c3.6 3.9 1.7 9.8-3.3 9.8-6.4-.1-8.3-8.6-2.5-11 3.3-1.3 3.5-1.2 5.8 1.2zM758.4 767.5c-9.8 4.1-11.8 15.4-4.2 23.2l3.2 3.3.1 33.7v33.7l5.8.1c4.5.1 5.7-.2 5.8-1.4.1-.9.2-16.3.3-34.3l.1-32.7 3.4-3c6.1-5.5 5.3-16-1.7-20.9-3.7-2.7-9-3.4-12.8-1.7zm8.6 8.8c5.5 4.7-1.6 12.7-7.4 8.4-2.5-1.9-2.4-6.7.3-8.8 2.5-2 4.4-1.9 7.1.4zM25.8 780.5c-.2.2-1.9.5-3.8.8-5.3.6-12.1 3.9-15.7 7.5C.5 794.7 0 798 0 831.2c0 23.1.3 29.8 1.3 29.9 4.8.5 8.4.4 9.7-.2 1.3-.6 1.5-4.9 1.4-30.6 0-19.1.3-30.7 1-32.3 1.2-2.8 5.4-6.9 7.4-7.1 2.6-.3 3-.4 3.6-1 .3-.3 4.1-.4 8.3-.2 11.2.5 21.8 6.1 14.9 7.9-1.4.3-2.6 1-2.6 1.5s-.4.9-1 .9c-1.2 0-10 5.3-10 6 .1.3 2.3 1.5 4.9 2.8 6 2.8 9.6 6.3 12.6 12.2 3.7 7.4 2.7 20-2 24.6-1.7 1.8-2.1 1.7-2.3-.1-.1-.8-.3-2.2-.4-3-.2-2.3-7.5-8.5-10.1-8.6-5.1-.4-8.1.2-10.8 2.2-9.8 6.9-7 21.5 4.7 24.8 2.6.7 10.9.1 15.9-1.2 7.3-1.9 14.7-8.9 17.5-16.5 4.5-12 1.8-25.4-6.7-33.7-2-2-3.4-3.7-3.2-3.9.2-.2 2.7-1.8 5.6-3.5 5-3.1 5.1-3.2 4-6.2-3.4-9.1-14.3-14.7-29.5-15.3-4.5-.2-8.2-.2-8.4-.1zm12.6 64.4c1.8 3.4.5 6.8-2.9 7.7-3.7.9-7-1.1-7.3-4.4-.4-6.7 7.2-9.2 10.2-3.3zM100 781.6c-7.1 1.5-11.7 3.2-15.7 5.8-3.2 2-3.3 2.3-3.3 8.8 0 3.8.2 6.8.4 6.8s2-1.6 4.1-3.5c9.5-9.1 22.9-12 36-7.9 8.6 2.7 11.6 7.3 10.7 16.1-.4 4.2-.4 4.2-3.1 2.9-8.5-4.3-23.9-4.7-34.5-1-7 2.4-8.1 3.1-13.1 8.2-8 8.2-7.4 25.1 1.2 33.9 7.5 7.8 27 12.1 36.5 8.1 13.5-5.7 9.2-26.1-5.5-26.1-7.7 0-14.3 6.7-13.8 14 .2 3.2.1 3.2-2.7 1.8-5.6-2.8-8.6-7.9-9.1-15.1-.5-8.4 5-15.3 13.8-17.3 5.6-1.2 17.8-.8 19.3.7.7.7 1.9 1.2 2.6 1.2 2.3 0 8.2 6.6 8.3 9.2 0 1.3.1 9.1.1 17.5.1 10.1.5 15.3 1.2 15.5 1 .3 3.5.3 9.2-.1 2-.1 2-.5 1.9-31.9 0-27.5-.3-32.1-1.7-34.7-5.7-10.3-26.4-16.6-42.8-12.9zm18.2 62.8c2.4 4.2-.1 8.6-4.8 8.6-5.5 0-7.6-7.8-2.7-10.3 3.2-1.7 6-1.1 7.5 1.7zM183.8 780.5c-.2.1-2.1.5-4.3.8-5.7.8-11.7 2.7-13.6 4.3-.8.8-2 1.4-2.5 1.4-1.4.1-5.7 4.1-7.8 7.5-1.8 2.8-2 5-2.1 27.7-.1 30.9.3 32.1 12.5 37.2 3.9 1.6 7.5 1.9 26 2 11.8.1 22.3 0 23.3-.2 1.3-.3 1.7-1.5 1.7-4.7 0-4.1-1.8-6.4-3.5-4.7-.9.9-6.5.9-6.5.1 0-.4-1.5-.4-3.2 0-1.8.4-4.2.6-5.3.5-6.4-.5-8.1-.6-8.7-.4-1.8.6-6.8.4-6.8-.1 0-.4-1.6-.3-3.4.1-1.9.4-3.7.6-3.9.3-.3-.2-1.7-.6-3.3-.9-3.9-.6-6.4-3.9-6.4-8.3-.1-6.6-.1-38.6-.1-41.4.2-7.7 15.4-13.8 28.6-11.4 4.3.7 14.9 5.6 16.5 7.6.3.3 1.7 1.6 3.1 2.9l2.6 2.3.1-7 .1-6.9-5.8-3c-3.1-1.6-7.9-3.4-10.6-4-5-1.2-16.1-2.3-16.7-1.7zM389 781.1c-6 1.3-7.4 1.7-11.7 3.4-2.4.9-4.3 2.1-4.3 2.6s-.6.9-1.4.9c-.8 0-2.9 1.9-4.7 4.2l-3.3 4.1.1 25.6c0 14.1.2 26.3.5 27.1 1.6 5.6 7 9.7 15.2 11.4 4.6 1 33 1.3 36.6.4 10.6-2.8 15.1-7.8 15.6-17.3.2-2.8.3-5.2.5-5.5.1-.3.1-.8 0-1.3-.2-1-.2-5.2-.1-20.7.1-6.9.1-13 0-13.5-.4-2-.7-4-.8-5.7-.5-4.8-10.5-12.2-20.1-14.8-5.4-1.4-17.4-2-22.1-.9zm15.8 8.8c.1.1.3.1.5 0 .1 0 2 .7 4.2 1.7 5.2 2.1 9.7 5.3 9 6.4-.3.5-.2 1.1.3 1.4.5.3.8 11.4.8 24.7l-.1 24.2-2.4 1.5c-1.3.9-3.1 1.8-4 2-3.2.6-26.7.5-30.7-.2-6.6-1.2-7-3-6.8-29.7l.1-22.6 2.8-3.1c2.5-2.8 8.3-5.4 14-6.4 1.6-.3 11.3-.2 12.3.1z"/><path d="M391 809c-4.2 2.2-7.7 8.2-7.4 12.8.8 10.9 13.6 16.9 22.1 10.2 3.9-3 5.2-5.8 5.3-10.9 0-10.3-10.8-16.8-20-12.1zm10.8 8.8c2.8 3.6-.1 9.2-4.9 9.2-2.5 0-5.8-4.6-5.2-7 1.2-4.7 7.1-5.9 10.1-2.2zM464.9 781.6c-7.6 1.7-16.9 6.1-17.7 8.4-.4 1-.5 4.4-.4 7.5l.4 5.7 3.6-3.5c6.2-6 18.4-10.8 25.7-10.1 10.3 1 18.2 4.3 20.2 8.4.7 1.4 1.3 5 1.3 8.1v5.6l-6.7-2.4c-7.3-2.5-20.1-3-27.3-1.1-14.6 3.9-23.1 13.7-22.5 25.8.3 5.9 2.2 12.5 4 14 .8.7 1.5 1.9 1.5 2.6 0 .8.4 1.4.9 1.4s1.6.6 2.3 1.4c4.5 4.5 15.5 7.7 26.3 7.9 7.2 0 11.2-1.6 14.2-6.2 7.8-11.5-4.4-25.6-17.5-20.2-3.9 1.6-8.1 8.4-7.5 12.2.3 2 0 2.9-.9 2.9-1.3 0-5.2-2.4-7.4-4.5-1.2-1.2-4-9.3-3.9-11.5.6-12 9.7-18.6 24.6-17.6 3.5.2 6.4.5 6.4.6 0 .1.8.3 1.7.5 2.9.5 8.8 4.6 10.4 7.1.9 1.2 1.5 3.3 1.4 4.6-.1 1.3-.2 9-.1 17.3l.1 15h5.7c5.2 0 5.7-.2 6.2-2.5.3-1.4.6-15.8.6-32.1-.1-27-.2-29.8-1.9-32.5-2.4-3.7-5-5.9-10.6-8.8-9.2-4.9-22.4-6.4-33.1-4zm18.5 62c3.5 3.4.6 9.4-4.4 9.4-4.9 0-7-5.5-3.7-9.8 1.3-1.7 6.2-1.5 8.1.4zM698.8 780.5c-.2.2-2 .6-4 .9-6.9 1.1-18.7 6.7-18.9 8.9-.5 5.9-.3 11 .5 11.4.5.4 1.7-.4 2.7-1.5.9-1.2 2.2-2.2 2.8-2.2.6 0 1.1-.4 1.1-.8 0-1 7-4.5 12-6.1 11.1-3.4 26-.3 30.3 6.3 1.8 2.6 2.4 13.6.9 13.6-.5 0-3.5-.9-6.6-2-8.2-2.8-23.6-2.3-32.1 1.1-7.5 2.9-14.5 9.8-16.1 15.6-2.3 8.7-.2 18.8 5.2 25.2 2.2 2.7 7.5 6.4 9.4 6.6.3 0 1 .3 1.5.7 3 1.9 17.9 3.5 24.8 2.7.9-.1 3.3-1.6 5.2-3.3 4.7-4.3 6.1-11 3.2-15.8-2.6-4.4-4.7-6.3-8.2-7.4-3.7-1.2-5.1-1.1-9.5.4-4.3 1.5-8.2 6.9-8.4 11.7-.1 4.3-1.9 4.5-6.2.7-5.3-4.6-6.8-12.1-4.3-21.1.8-3 6.7-7.7 11-8.7 5-1.3 15.6-1.1 20.1.2 2.8.9 6.3 2.9 8.3 5l3.5 3.5v17.4c0 13.3.3 17.5 1.3 17.6.6.1 3.3.2 5.9.3 4.2.1 4.8-.2 4.9-1.9.5-14.9.2-58.8-.4-61.4-1.8-6.9-7.6-11.7-19-15.6-4-1.4-20-2.9-20.9-2zm15.2 66.8c0 5.1-6.3 7.4-10.1 3.6-3-3-1-8.4 3.4-9.1 2.7-.5 6.7 2.9 6.7 5.5zM828.8 816.5l-.3 36-3.2-.3c-2.2-.2-3.4.1-3.5 1-.4 4-.3 7.4.3 7.8.4.3 10.8.5 23.1.4 24.8-.1 30.3-1.1 35-6.2 5.1-5.4 5.1-5.8 5.1-36.5.1-27.2 0-28.9-1.9-31.4-6.7-9-17-9.1-23.6-.2-1.8 2.4-2.2 4.6-1.9 10.1.2 3.8 5 8.7 10.2 10.2l4.4 1.3v39.4L870 850c-1.4 1.1-3.4 1.9-4.5 1.9-1.1.1-6.9.2-13 .3l-11 .2-.2-34c-.1-18.6-.2-34.9-.2-36.1-.1-1.9-.6-2.1-6.1-2l-6 .1-.2 36.1zm47-26.3c3.2 2.7 0 9.8-4.4 9.8-3.1 0-6.3-3.6-5.7-6.3 1.2-4.8 6.2-6.5 10.1-3.5zM896.6 780.9c-.1.3-.2 2.4-.2 4.6.1 3.7.3 4 3.1 4.1 1.7.1 3.4.2 3.9.3.4.1.6 1 .3 2.1s-.2 2.2.1 2.4c.8.5.7 12-.2 14.1-.3.8-.2 1.6.2 1.9.8.5.7 11.9-.2 14.1-.3.8-.2 1.6.2 1.9.8.5.7 11.9-.2 14.1-.3.8-.2 1.7.3 1.9.8.5.5 7-.3 9.3-.3.7-.2 1.3.2 1.3s.7 1.9.7 4.2v4.3h5.8c3.1 0 5.7-.4 5.8-1 .1-.5.2-16.3.3-35 0-18.7.4-34.5.8-35.1.4-.6 5.1-.9 12.6-.8 13.6.2 17.6 1.6 18.1 6.2.1 1.5.3 14.8.4 29.7.2 25.3.3 27.2 2.2 29.7 6.4 8.5 19.5 7.7 23.9-1.6 4.2-8.8-1.1-18-11.4-20l-2.5-.5-.1-19.4c0-23.7-.6-25.5-10-30.2l-5.9-3h-23.8c-13.1-.1-23.9.1-24.1.4zm69.1 61.9c.7.4 1.5 2.2 1.9 3.9.5 2.5.1 3.4-2 5.1-5.9 4.6-12-2.5-7.3-8.6 1.1-1.3 5.5-1.6 7.4-.4zM793.8 833.8c-1.6.2-2.8.8-2.8 1.3s-.6.9-1.3.9c-2.6 0-6 5.3-6.5 10-1.4 15.3 18.9 21.5 25.7 7.8 5-10.1-3.6-21.5-15.1-20zm8.3 11.6c.5 4.9-1.6 7.8-5.6 7.8-3.1 0-5.4-2.7-5.5-6.3 0-2 .8-3 3.2-4.2 2.8-1.4 3.4-1.4 5.5 0 1.3.8 2.4 2 2.4 2.7z"/></svg>