<svg id="Layer_5" height="512" viewBox="0 0 64 64" width="512" xmlns="http://www.w3.org/2000/svg"><path d="M10 5l6 10h-3v18H7V15H4zm43 0l6 10h-3v18h-6V15h-3z" fill="#b4dd7f"/><path d="M28 38v24H6V46h18zm28 8v16H28V38l4 8z" fill="#ecc19c"/><path d="M39 54h13v4H39z" fill="#e6e9ed"/><path d="M57 38l4 8H32l-4-8h10z" fill="#cf9e76"/><path d="M40 30h6c0 4.42-3.58 8-8 8h-6c0-4.42 3.58-8 8-8z" fill="#a0d468"/><circle cx="32" cy="12" fill="#fcd770" r="10"/><path d="M32 34h-6c-4.42 0-8-3.58-8-8h6c4.42 0 8 3.58 8 8z" fill="#a0d468"/><path d="M28 38l-4 8H3l4-8z" fill="#cf9e76"/><path d="M33 19v-2h3v-3c0-1.654-1.346-3-3-3h-2c-.552 0-1-.449-1-1V9h3c.552 0 1 .449 1 1h2c0-1.654-1.346-3-3-3V5h-2v2h-3v3c0 1.654 1.346 3 3 3h2c.552 0 1 .449 1 1v1h-3c-.552 0-1-.449-1-1h-2c0 1.654 1.346 3 3 3v2z"/><path d="M62.618 47l-5-10H43.644A8.983 8.983 0 0 0 47 30v-1h-7a8.983 8.983 0 0 0-7 3.356V22.95c5.598-.508 10-5.222 10-10.95 0-6.065-4.935-11-11-11S21 5.935 21 12c0 5.728 4.402 10.442 10 10.949v5.406A8.985 8.985 0 0 0 24 25h-7v1c0 4.962 4.037 9 9 9h5v2H6.382l-5 10H5v16h52V47zM26 33c-3.521 0-6.442-2.612-6.929-6H24c3.521 0 6.442 2.612 6.929 6zm14-2h4.929c-.486 3.388-3.408 6-6.929 6h-4.929c.487-3.388 3.408-6 6.929-6zM23 12c0-4.962 4.037-9 9-9s9 4.038 9 9-4.037 9-9 9-9-4.038-9-9zm8 27h25.382l3 6H32.618l-3-6zM7.618 39h18.764l-3 6H4.618zM7 47h17.618L27 42.236V61H7zm48 14H29V42.236L31.382 47H55z"/><path d="M53 53H38v6h15zm-2 4H40v-2h11zM9 53h2v2H9zm0-4h2v2H9zm0 8h2v2H9zm40-24h2V14h-2.233L53 6.944 57.233 14H55v9h2v-7h3.767L53 3.056 45.233 16H49z"/><path d="M55 25h2v2h-2zm0 4h2v2h-2zM6 23h2v-9H5.767L10 6.944 14.233 14H12v19h2V16h3.767L10 3.056 2.233 16H6z"/><path d="M6 25h2v2H6zm0 4h2v2H6zm48 12h2v2h-2zm-4 0h2v2h-2zm-4 0h2v2h-2zm-34 0h2v2h-2zm-4 0h2v2H8zm8 0h2v2h-2z"/></svg>