<svg id="Capa_1" height="512" width="512" xmlns="http://www.w3.org/2000/svg"><path d="M111.746 358.343c-4.234-3.547-10.541-2.989-14.087 1.245l-25.005 29.854-9.037-7.657c-4.214-3.57-10.523-3.048-14.094 1.166-3.57 4.214-3.048 10.524 1.166 14.094l16.71 14.157a10 10 0 0 0 14.131-1.209l31.463-37.563c3.544-4.234 2.986-10.54-1.247-14.087z"/><path d="M490.822 204.11H476.45c-12.038-.556-21.719-10.809-32.92-22.673-7.485-7.927-15.499-16.415-25.153-22.706V73.247c0-15.057-12.25-27.307-27.306-27.307H64.897c-15.057 0-27.306 12.25-27.306 27.307v69.368c0 5.523 4.477 10 10 10s10-4.477 10-10V73.247c0-3.96 3.346-7.307 7.306-7.307h110.659v88.477a10.003 10.003 0 0 0 9.999 10 10 10 0 0 0 5.301-1.52l37.14-23.213 37.113 23.212a10.002 10.002 0 0 0 15.303-8.478V65.94h110.66c3.96 0 7.306 3.346 7.306 7.307v77.006a54.706 54.706 0 0 0-10.279-1.154l-.176-.001h-56.344l-.155.001c-12.055.187-18.249 5.652-21.323 10.203-4.771 7.064-5.213 16.631-1.249 26.928a42.535 42.535 0 0 0 3.344 6.815h-75.829c-16.292 0-29.547 13.255-29.547 29.547 0 3.35.56 6.572 1.589 9.576h-2.654c-16.292 0-29.547 13.255-29.547 29.548s13.255 29.548 29.547 29.548h2.647a29.445 29.445 0 0 0-1.583 9.548c0 15.783 12.414 28.717 27.981 29.535a29.415 29.415 0 0 0-1.597 9.589c0 16.293 13.255 29.548 29.547 29.548h123.894c4.267 0 8.151-.522 11.731-1.416v31.334c0 3.976-3.346 7.334-7.306 7.334h-231.63a81.034 81.034 0 0 0 3.034-21.946c0-44.796-36.443-81.24-81.238-81.24a80.936 80.936 0 0 0-23.647 3.521v-74.549c0-5.523-4.477-10-10-10s-10 4.477-10 10v83.803C15.011 330.773 0 356.054 0 384.791c0 44.812 36.443 81.269 81.238 81.269 29.463 0 55.31-15.775 69.554-39.323h240.28c15.056 0 27.306-12.262 27.306-27.334V358.23c2.208-1.578 4.319-3.197 6.366-4.775 8.831-6.805 16.457-12.682 28.601-12.682h37.478c11.677 0 21.178-9.488 21.178-21.15v-94.334C512 213.61 502.5 204.11 490.822 204.11zm-230.41-67.742l-27.111-16.957a10.004 10.004 0 0 0-10.603-.001l-27.142 16.964V65.94h64.856zM81.238 446.06C47.471 446.06 20 418.575 20 384.791c0-33.768 27.471-61.24 61.238-61.24s61.238 27.472 61.238 61.24c0 33.784-27.471 61.269-61.238 61.269zM492 319.623c0 .613-.55 1.15-1.178 1.15h-37.478c-18.957 0-30.566 8.946-40.809 16.84-8.607 6.633-15.405 11.872-25.89 11.872H262.752c-5.264 0-9.547-4.283-9.547-9.548s4.283-9.548 9.547-9.548h33.194c5.523 0 10-4.477 10-10s-4.477-10-10-10h-59.578c-5.265 0-9.547-4.295-9.547-9.576 0-5.265 4.283-9.548 9.547-9.548h59.578c5.523 0 10-4.477 10-10s-4.477-10-10-10h-90.19c-5.264 0-9.547-4.283-9.547-9.548s4.283-9.548 9.547-9.548h90.19c5.523 0 10-4.477 10-10s-4.477-10-10-10h-59.578c-5.265 0-9.547-4.296-9.547-9.576 0-5.265 4.283-9.547 9.547-9.547H384.15c5.523 0 10-4.477 10-10s-4.477-10-10-10h-36.201c-9.147 0-17.164-5.489-20.428-13.991-1.902-4.942-1.384-7.76-.844-8.56.542-.802 2.495-1.349 4.987-1.396h56.167c16.863.337 28.665 12.837 41.159 26.069 13.07 13.843 26.584 28.157 46.868 28.935.127.005.255.007.383.007h14.583c.638 0 1.178.54 1.178 1.178v94.335z"/><path d="M47.591 197.583c5.523 0 10-4.505 10-10.028s-4.477-10-10-10-10 4.477-10 10v.057c0 5.522 4.477 9.971 10 9.971z"/></svg>