<svg id="Capa_1" enable-background="new 0 0 512 512" height="512" viewBox="0 0 512 512" width="512" xmlns="http://www.w3.org/2000/svg"><g><g><path clip-rule="evenodd" d="m47.591 73.247v248.73c10.015-5.362 21.476-8.426 33.647-8.426 39.35 0 71.238 31.889 71.238 71.24 0 11.49-2.695 22.328-7.518 31.946h246.113c9.504 0 17.306-7.802 17.306-17.335v-46.5c-6.128 3.83-12.937 6.582-21.732 6.582h-83.805-40.087c-10.752 0-19.547-8.795-19.547-19.548 0-10.724 8.738-19.491 19.434-19.548h-26.271c-10.752 0-19.547-8.823-19.547-19.576s8.795-19.548 19.547-19.548h-30.612c-10.752 0-19.547-8.795-19.547-19.548s8.795-19.548 19.547-19.548h30.498c-10.696-.057-19.434-8.852-19.434-19.576 0-10.753 8.795-19.548 19.547-19.548h111.581c-13.646 0-25.165-8.426-29.761-20.399-4.795-12.455-1.277-23.321 13.391-23.548h31.009 25.335c7.66.142 14.384 2.156 20.455 5.362v-91.212c0-9.504-7.802-17.306-17.306-17.306h-120.66v98.476l-42.414-26.527-42.442 26.527v-98.476h-120.659c-9.504 0-17.306 7.802-17.306 17.306z" fill="#ffd47b" fill-rule="evenodd"/></g><g><path clip-rule="evenodd" d="m270.412 55.941h-84.856v98.476l42.442-26.527 42.414 26.527z" fill="#fff1d8" fill-rule="evenodd"/></g><g><path clip-rule="evenodd" d="m347.949 203.045h-111.581c-10.752 0-19.547 8.795-19.547 19.548 0 10.724 8.738 19.519 19.434 19.576h-30.498c-10.752 0-19.547 8.795-19.547 19.548s8.795 19.548 19.547 19.548h30.612c-10.752 0-19.547 8.795-19.547 19.548s8.795 19.576 19.547 19.576h26.271c-10.696.057-19.434 8.823-19.434 19.548 0 10.753 8.795 19.548 19.547 19.548h40.087 83.806c8.795 0 15.604-2.752 21.732-6.582 13.646-8.455 23.916-22.13 44.967-22.13h22.895 14.582c6.156 0 11.178-5.022 11.178-11.15v-94.334c0-6.157-5.022-11.178-11.178-11.178h-14.582c-27.548-1.05-41.96-36.003-67.862-49.65-6.071-3.206-12.795-5.22-20.455-5.362h-25.335-31.009c-14.668.227-18.185 11.093-13.391 23.548 4.596 11.972 16.114 20.398 29.761 20.398z" fill="#f2b394" fill-rule="evenodd"/></g><g><path clip-rule="evenodd" d="m81.238 313.551c-12.171 0-23.633 3.064-33.647 8.426-22.384 12.03-37.591 35.634-37.591 62.814 0 39.351 31.888 71.268 71.238 71.268 27.86 0 52.003-16.001 63.72-39.322 4.823-9.618 7.518-20.456 7.518-31.946 0-39.351-31.888-71.24-71.238-71.24z" fill="#cbe459" fill-rule="evenodd"/></g><g><path d="m111.746 358.343c-4.234-3.547-10.541-2.989-14.087 1.245l-25.005 29.854-9.037-7.657c-4.214-3.57-10.523-3.048-14.094 1.166-3.57 4.214-3.048 10.524 1.166 14.094l16.71 14.157c1.813 1.536 4.106 2.37 6.464 2.37.284 0 .568-.012.853-.037 2.652-.227 5.105-1.501 6.814-3.542l31.463-37.563c3.544-4.234 2.986-10.54-1.247-14.087z"/><path d="m490.822 204.11h-14.372c-12.038-.556-21.719-10.809-32.92-22.673-7.485-7.927-15.499-16.415-25.153-22.706v-85.484c0-15.057-12.25-27.307-27.306-27.307h-326.174c-15.057 0-27.306 12.25-27.306 27.307v69.368c0 5.523 4.477 10 10 10s10-4.477 10-10v-69.368c0-3.96 3.346-7.307 7.306-7.307h110.659v88.477c0 3.635 1.973 6.984 5.152 8.747 1.51.837 3.18 1.253 4.847 1.253 1.843 0 3.682-.509 5.301-1.52l37.14-23.213 37.113 23.212c3.083 1.927 6.968 2.031 10.149.269s5.154-5.111 5.154-8.747v-88.478h110.66c3.96 0 7.306 3.346 7.306 7.307v77.006c-3.253-.681-6.668-1.09-10.279-1.154-.059-.001-.117-.001-.176-.001h-25.334-19.677-11.333c-.052 0-.103 0-.155.001-12.055.187-18.249 5.652-21.323 10.203-4.771 7.064-5.213 16.631-1.249 26.928.923 2.404 2.048 4.678 3.344 6.815h-75.829c-16.292 0-29.547 13.255-29.547 29.547 0 3.35.56 6.572 1.589 9.576h-2.654c-16.292 0-29.547 13.255-29.547 29.548s13.255 29.548 29.547 29.548h2.647c-1.025 2.996-1.583 6.208-1.583 9.548 0 15.783 12.414 28.717 27.981 29.535-1.035 3.008-1.597 6.233-1.597 9.589 0 16.293 13.255 29.548 29.547 29.548h123.894c4.267 0 8.151-.522 11.731-1.416v31.334c0 3.976-3.346 7.334-7.306 7.334h-231.63c1.962-6.986 3.034-14.341 3.034-21.946 0-44.796-36.443-81.24-81.238-81.24-8.223 0-16.161 1.238-23.647 3.521v-74.549c0-5.523-4.477-10-10-10s-10 4.477-10 10v83.803c-22.577 14.448-37.588 39.729-37.588 68.466 0 44.812 36.443 81.269 81.238 81.269 29.463 0 55.31-15.775 69.554-39.323h240.28c15.056 0 27.306-12.262 27.306-27.334v-41.173c2.208-1.578 4.319-3.197 6.366-4.775 8.831-6.805 16.457-12.682 28.601-12.682h37.478c11.677 0 21.178-9.488 21.178-21.15v-94.334c-.001-11.679-9.501-21.179-21.179-21.179zm-230.41-67.742-27.111-16.957c-3.243-2.027-7.358-2.028-10.603-.001l-27.142 16.964v-70.434h64.856zm-179.174 309.692c-33.767 0-61.238-27.485-61.238-61.269 0-33.768 27.471-61.24 61.238-61.24s61.238 27.472 61.238 61.24c0 33.784-27.471 61.269-61.238 61.269zm410.762-126.437c0 .613-.55 1.15-1.178 1.15h-37.478c-18.957 0-30.566 8.946-40.809 16.84-8.607 6.633-15.405 11.872-25.89 11.872h-123.893c-5.264 0-9.547-4.283-9.547-9.548s4.283-9.548 9.547-9.548h33.194c5.523 0 10-4.477 10-10s-4.477-10-10-10h-59.578c-5.265 0-9.547-4.295-9.547-9.576 0-5.265 4.283-9.548 9.547-9.548h59.578c5.523 0 10-4.477 10-10s-4.477-10-10-10h-90.19c-5.264 0-9.547-4.283-9.547-9.548s4.283-9.548 9.547-9.548h90.19c5.523 0 10-4.477 10-10s-4.477-10-10-10h-59.578c-5.265 0-9.547-4.296-9.547-9.576 0-5.265 4.283-9.547 9.547-9.547h111.581 21.703 14.498c5.523 0 10-4.477 10-10s-4.477-10-10-10h-14.498-21.703c-9.147 0-17.164-5.489-20.428-13.991-1.902-4.942-1.384-7.76-.844-8.56.542-.802 2.495-1.349 4.987-1.396h30.925 25.242c16.863.337 28.665 12.837 41.159 26.069 13.07 13.843 26.584 28.157 46.868 28.935.127.005.255.007.383.007h14.583c.638 0 1.178.54 1.178 1.178v94.335z"/><path d="m47.591 197.583c5.523 0 10-4.505 10-10.028s-4.477-10-10-10-10 4.477-10 10v.057c0 5.522 4.477 9.971 10 9.971z"/></g></g></svg>