<svg xmlns="http://www.w3.org/2000/svg" viewBox="0 0 64 64" width="512" height="512"><g id="Check_List" data-name="Check List"><rect x="6" y="9" width="42" height="52" rx="4" fill="#754c29"/><path d="M42 13H12a1 1 0 0 0-1 1v42a1 1 0 0 0 1 1h31V14a1 1 0 0 0-1-1z" fill="#e6e7e8"/><path d="M58 46a12 12 0 0 1-10.03 11.84A11.64 11.64 0 0 1 46 58a12 12 0 0 1-3-23.62 11.858 11.858 0 0 1 3-.38 11.522 11.522 0 0 1 1.96.16A11.994 11.994 0 0 1 58 46z" fill="#ffd422"/><path d="M53 44v7a1 1 0 0 1-1 1H40a1 1 0 0 1-1-1v-7z" fill="#a97c50"/><path fill="#78b9eb" d="M17 36h8v8h-8zm8-12v6h-8v-8h8v2z"/><path d="M40 13v1a2.006 2.006 0 0 1-2 2H16a2.006 2.006 0 0 1-2-2V8h26v5z" fill="#ffa733"/><path fill="#b38c62" d="M48 44v2h-4v-6h4v4z"/><path d="M44 40v4h-5v-3a1 1 0 0 1 1-1zm9 1v3h-5v-4h4a1 1 0 0 1 1 1z" fill="#c49a6c"/><path d="M7 57V13a3 3 0 0 1 3-3h3v2h-1a2 2 0 0 0-2 2v42a2 2 0 0 0 2 2h23.986v-2H12V14h1a3 3 0 0 0 3 3h22a3 3 0 0 0 3-3h1v16.95h2V14a2 2 0 0 0-2-2h-1v-2h3a3 3 0 0 1 3 3v17.95h2V13a5.006 5.006 0 0 0-5-5h-3a1 1 0 0 0-1-1H29.22a3 3 0 1 0-4.44 0H14a1 1 0 0 0-1 1h-3a5.006 5.006 0 0 0-5 5v44a5.006 5.006 0 0 0 5 5h34v-2H10a3 3 0 0 1-3-3zM27 4a1 1 0 1 1-1 1 1 1 0 0 1 1-1zM15 9h24v5a1 1 0 0 1-1 1H16a1 1 0 0 1-1-1z"/><path d="M46 33a13 13 0 1 0 13 13 13.015 13.015 0 0 0-13-13zm0 24a11 11 0 1 1 11-11 11.013 11.013 0 0 1-11 11z"/><path d="M52 39H40a2 2 0 0 0-2 2v10a2 2 0 0 0 2 2h12a2 2 0 0 0 2-2V41a2 2 0 0 0-2-2zm0 4h-3v-2h3zm-5-2v4h-2v-4zm-4 0v2h-3v-2zm-3 10v-6h3v1a1 1 0 0 0 1 1h4a1 1 0 0 0 1-1v-1h3v6zM26 27h-2v2h-6v-6h5v-2h-6a1 1 0 0 0-1 1v8a1 1 0 0 0 1 1h8a1 1 0 0 0 1-1zm-1 8h-8a1 1 0 0 0-1 1v8a1 1 0 0 0 1 1h8a1 1 0 0 0 1-1v-8a1 1 0 0 0-1-1zm-1 8h-6v-6h6z"/><path d="M26.293 21.293L22 25.586l-2.293-2.293-1.414 1.414 3 3a1 1 0 0 0 1.414 0l5-5zM30 28h8v2h-8zm0-4h8v2h-8z"/></g></svg>