<svg id="Capa_1" enable-background="new 0 0 512 512" height="512" viewBox="0 0 512 512" width="512" xmlns="http://www.w3.org/2000/svg"><g><path d="m325.118 480.65h-306.018c-6.406 0-11.599-5.193-11.599-11.599v-285.294c0-6.406 5.193-11.599 11.599-11.599h306.018c6.406 0 11.599 5.193 11.599 11.599v285.293c0 6.407-5.193 11.6-11.599 11.6z" fill="#ffd064"/><path d="m301.716 172.157c6.301 0 11.41 5.108 11.41 11.41v297.083h11.992c6.406 0 11.599-5.193 11.599-11.599v-285.294c0-6.406-5.193-11.599-11.599-11.599h-23.402z" fill="#ffc250"/><g><path d="m228.971 432.684-5.724-5.881 34.875-33.946-34.875-33.947 5.724-5.881c7.916-8.133 20.926-8.309 29.059-.393l30.564 29.75c1.585 1.542 2.875 3.386 3.631 5.464 2.01 5.521.511 11.444-3.46 15.309l-30.736 29.916c-8.132 7.918-21.142 7.742-29.058-.391z" fill="#f9f6f6"/></g><path d="m192.388 226.31h-40.559c-3.754 0-6.797-3.043-6.797-6.797v-47.356h54.153v47.356c0 3.754-3.043 6.797-6.797 6.797z" fill="#26457d"/><path d="m179.442 172.157v47.356c0 3.754-3.043 6.797-6.797 6.797h19.743c3.754 0 6.797-3.043 6.797-6.797v-47.356z" fill="#21386b"/><path d="m242.116 75.764v22.854c0 79.599 42.465 153.151 111.4 192.95l19.793 11.427 19.793-11.427c68.935-39.799 111.4-113.352 111.4-192.95v-22.854l-131.194-44.413z" fill="#80b4fb"/><path d="m479.672 67.359v18.729c0 79.599-42.465 153.151-111.4 192.95l-18.193 10.504c1.138.685 2.283 1.361 3.437 2.027l19.792 11.427 19.793-11.427c68.934-39.799 111.4-113.352 111.4-192.95v-22.855z" fill="#61a2f9"/><path d="m378.355 109.685 14.118 23.13c.821 1.345 2.144 2.306 3.677 2.671l26.36 6.279c4.304 1.025 5.999 6.241 3.119 9.6l-17.635 20.574c-1.025 1.196-1.531 2.752-1.404 4.322l2.174 27.011c.355 4.41-4.082 7.634-8.167 5.933l-25.017-10.414c-1.454-.605-3.09-.605-4.545 0l-25.017 10.414c-4.085 1.7-8.521-1.523-8.166-5.933l2.174-27.011c.126-1.57-.379-3.126-1.404-4.322l-17.635-20.574c-2.879-3.359-1.185-8.575 3.119-9.6l26.36-6.279c1.533-.365 2.856-1.327 3.677-2.671l14.118-23.13c2.305-3.776 7.789-3.776 10.094 0z" fill="#f9f6f6"/><path d="m422.51 141.766-13.757-3.277c-10.135 14.173-31.781 38.475-70.217 56.288l-.684 8.497c-.355 4.411 4.082 7.634 8.166 5.934l25.017-10.414c1.454-.605 3.09-.605 4.545 0l25.017 10.414c4.085 1.7 8.521-1.523 8.167-5.934l-2.174-27.01c-.126-1.571.379-3.126 1.404-4.323l17.635-20.574c2.88-3.36 1.185-8.576-3.119-9.601z" fill="#dddaec"/><g><path d="m258.182 473.15h-239.082c-2.261 0-4.1-1.839-4.1-4.1v-221.955c0-4.143-3.357-7.5-7.5-7.5s-7.5 3.357-7.5 7.5v221.955c0 10.531 8.568 19.1 19.1 19.1h239.082c4.143 0 7.5-3.357 7.5-7.5s-3.358-7.5-7.5-7.5z"/><path d="m71.218 420.51c4.143 0 7.5-3.357 7.5-7.5v-40.969l8.637 8.528c2.944 2.911 7.694 2.883 10.605-.066 2.911-2.947 2.881-7.695-.066-10.606l-21.406-21.14c-2.92-2.885-7.618-2.884-10.54.001l-21.405 21.14c-2.946 2.91-2.977 7.659-.065 10.606 2.896 2.932 7.644 2.99 10.606.065l8.635-8.528v40.968c-.001 4.143 3.356 7.501 7.499 7.501z"/><path d="m139.807 420.51c4.143 0 7.5-3.357 7.5-7.5v-40.968l8.635 8.528c2.939 2.901 7.687 2.891 10.606-.065 2.911-2.947 2.881-7.696-.065-10.606l-21.405-21.14c-2.922-2.885-7.619-2.885-10.541 0l-21.405 21.14c-2.946 2.91-2.977 7.659-.065 10.606 2.909 2.946 7.658 2.977 10.606.065l8.635-8.528v40.968c-.001 4.142 3.356 7.5 7.499 7.5z"/><path d="m217.873 432.035 5.725 5.881c10.787 11.08 28.579 11.325 39.664.535l30.734-29.916c6.164-5.998 8.235-15.124 5.277-23.249 0-.001-.001-.001-.001-.001-1.111-3.053-2.944-5.836-5.447-8.272l-30.563-29.749c-11.027-10.732-28.783-10.644-39.664.535l-5.724 5.88c-2.887 2.966-2.826 7.716.143 10.605l29.354 28.573-29.354 28.572c-2.968 2.889-3.033 7.637-.144 10.606zm45.481-33.804c1.45-1.411 2.269-3.35 2.269-5.374s-.818-3.963-2.269-5.374l-29.501-28.716.492-.506c5.021-5.156 13.297-5.268 18.453-.25l30.563 29.749c3.188 3.105 2.782 7.485.172 10.025l-30.735 29.917c-5.157 5.019-13.435 4.906-18.452-.25l-.493-.506z"/><path d="m398.529 128.344-13.772-22.565v-.001c-2.456-4.023-6.737-6.425-11.45-6.424-4.713 0-8.993 2.402-11.447 6.425l-13.774 22.565-25.716 6.127c-4.585 1.091-8.192 4.419-9.649 8.9-1.457 4.483-.496 9.296 2.572 12.876l17.205 20.072-2.12 26.352c-.379 4.698 1.672 9.157 5.484 11.928 3.811 2.77 8.686 3.344 13.04 1.532l24.406-10.16 24.407 10.16c4.341 1.808 9.217 1.245 13.04-1.531 3.812-2.771 5.863-7.23 5.484-11.928l-2.121-26.353 17.207-20.072c3.067-3.58 4.028-8.393 2.571-12.876-1.458-4.482-5.065-7.81-9.648-8.9zm3.769 38.718c-2.308 2.693-3.468 6.266-3.184 9.803l1.965 24.418-22.616-9.414c-3.275-1.363-7.033-1.363-10.311 0l-22.615 9.414 1.964-24.415c.286-3.538-.875-7.113-3.186-9.809l-15.942-18.6 23.826-5.677c3.455-.82 6.497-3.03 8.345-6.061l12.764-20.911 12.765 20.913c1.851 3.03 4.892 5.238 8.34 6.058l23.831 5.678z"/><path d="m506.905 68.661-53.604-18.147c-3.926-1.332-8.182.774-9.509 4.698-1.329 3.924.775 8.181 4.698 9.509l48.51 16.422v17.475c0 76.674-41.249 148.119-107.649 186.456l-16.043 9.262-16.042-9.262c-66.401-38.337-107.65-109.783-107.65-186.456v-17.475l123.692-41.875 46.729 15.82c3.923 1.328 8.181-.774 9.509-4.698 1.329-3.924-.775-8.181-4.698-9.509l-49.135-16.635c-1.561-.529-3.25-.529-4.811 0l-131.192 44.415c-3.045 1.03-5.095 3.889-5.095 7.104v22.854c0 22.649 3.371 44.871 9.739 66.039h-225.254c-10.531 0-19.1 8.568-19.1 19.1v33.352c0 4.143 3.357 7.5 7.5 7.5s7.5-3.357 7.5-7.5v-33.352c0-2.261 1.839-4.1 4.1-4.1h118.433v39.855c0 7.884 6.413 14.297 14.297 14.297h40.559c7.884 0 14.298-6.413 14.298-14.297v-39.855h42.744c15.71 41.638 43.302 78.362 79.788 105.016v184.377c0 2.261-1.839 4.1-4.1 4.1h-36.95c-4.143 0-7.5 3.357-7.5 7.5s3.357 7.5 7.5 7.5h36.95c10.531 0 19.1-8.568 19.1-19.1v-174.303c1.832 1.128 3.678 2.237 5.548 3.316l19.792 11.427c2.32 1.34 5.18 1.34 7.5 0l19.793-11.427c71.025-41.008 115.148-117.43 115.148-199.446v-22.854c0-3.214-2.05-6.073-5.095-7.103zm-315.219 150.148h-39.153v-39.152h39.153z"/></g></g></svg>