<svg id="Capa_1" height="512" width="512" xmlns="http://www.w3.org/2000/svg"><path d="M325.118 480.65H19.1c-6.406 0-11.599-5.193-11.599-11.599V183.757c0-6.406 5.193-11.599 11.599-11.599h306.018c6.406 0 11.599 5.193 11.599 11.599V469.05c0 6.407-5.193 11.6-11.599 11.6z" fill="#ffd064"/><path d="M301.716 172.157c6.301 0 11.41 5.108 11.41 11.41V480.65h11.992c6.406 0 11.599-5.193 11.599-11.599V183.757c0-6.406-5.193-11.599-11.599-11.599h-23.402z" fill="#ffc250"/><path d="M228.971 432.684l-5.724-5.881 34.875-33.946-34.875-33.947 5.724-5.881c7.916-8.133 20.926-8.309 29.059-.393l30.564 29.75c1.585 1.542 2.875 3.386 3.631 5.464 2.01 5.521.511 11.444-3.46 15.309l-30.736 29.916c-8.132 7.918-21.142 7.742-29.058-.391z" fill="#f9f6f6"/><path d="M192.388 226.31h-40.559a6.797 6.797 0 01-6.797-6.797v-47.356h54.153v47.356a6.797 6.797 0 01-6.797 6.797z" fill="#26457d"/><path d="M179.442 172.157v47.356a6.797 6.797 0 01-6.797 6.797h19.743a6.797 6.797 0 006.797-6.797v-47.356z" fill="#21386b"/><path d="M242.116 75.764v22.854c0 79.599 42.465 153.151 111.4 192.95l19.793 11.427 19.793-11.427c68.935-39.799 111.4-113.352 111.4-192.95V75.764L373.308 31.351z" fill="#80b4fb"/><path d="M479.672 67.359v18.729c0 79.599-42.465 153.151-111.4 192.95l-18.193 10.504c1.138.685 2.283 1.361 3.437 2.027l19.792 11.427 19.793-11.427c68.934-39.799 111.4-113.352 111.4-192.95V75.764z" fill="#61a2f9"/><path d="M378.355 109.685l14.118 23.13a5.91 5.91 0 003.677 2.671l26.36 6.279c4.304 1.025 5.999 6.241 3.119 9.6l-17.635 20.574a5.91 5.91 0 00-1.404 4.322l2.174 27.011c.355 4.41-4.082 7.634-8.167 5.933l-25.017-10.414a5.918 5.918 0 00-4.545 0l-25.017 10.414c-4.085 1.7-8.521-1.523-8.166-5.933l2.174-27.011a5.915 5.915 0 00-1.404-4.322l-17.635-20.574c-2.879-3.359-1.185-8.575 3.119-9.6l26.36-6.279a5.914 5.914 0 003.677-2.671l14.118-23.13c2.305-3.776 7.789-3.776 10.094 0z" fill="#f9f6f6"/><path d="M422.51 141.766l-13.757-3.277c-10.135 14.173-31.781 38.475-70.217 56.288l-.684 8.497c-.355 4.411 4.082 7.634 8.166 5.934l25.017-10.414a5.918 5.918 0 014.545 0l25.017 10.414c4.085 1.7 8.521-1.523 8.167-5.934l-2.174-27.01a5.917 5.917 0 011.404-4.323l17.635-20.574c2.88-3.36 1.185-8.576-3.119-9.601z" fill="#dddaec"/><path d="M258.182 473.15H19.1a4.104 4.104 0 01-4.1-4.1V247.095c0-4.143-3.357-7.5-7.5-7.5s-7.5 3.357-7.5 7.5V469.05c0 10.531 8.568 19.1 19.1 19.1h239.082c4.143 0 7.5-3.357 7.5-7.5s-3.358-7.5-7.5-7.5z"/><path d="M71.218 420.51c4.143 0 7.5-3.357 7.5-7.5v-40.969l8.637 8.528a7.496 7.496 0 0010.605-.066 7.5 7.5 0 00-.066-10.606l-21.406-21.14a7.5 7.5 0 00-10.54.001l-21.405 21.14a7.5 7.5 0 00-.065 10.606c2.896 2.932 7.644 2.99 10.606.065l8.635-8.528v40.968a7.498 7.498 0 007.499 7.501zm68.589 0c4.143 0 7.5-3.357 7.5-7.5v-40.968l8.635 8.528a7.5 7.5 0 0010.541-10.671l-21.405-21.14a7.5 7.5 0 00-10.541 0l-21.405 21.14a7.5 7.5 0 00-.065 10.606 7.5 7.5 0 0010.606.065l8.635-8.528v40.968a7.498 7.498 0 007.499 7.5zm78.066 11.525l5.725 5.881c10.787 11.08 28.579 11.325 39.664.535l30.734-29.916c6.164-5.998 8.235-15.124 5.277-23.249l-.001-.001c-1.111-3.053-2.944-5.836-5.447-8.272l-30.563-29.749c-11.027-10.732-28.783-10.644-39.664.535l-5.724 5.88a7.5 7.5 0 00.143 10.605l29.354 28.573-29.354 28.572a7.5 7.5 0 00-.144 10.606zm45.481-33.804a7.5 7.5 0 000-10.748l-29.501-28.716.492-.506c5.021-5.156 13.297-5.268 18.453-.25l30.563 29.749c3.188 3.105 2.782 7.485.172 10.025l-30.735 29.917c-5.157 5.019-13.435 4.906-18.452-.25l-.493-.506zm135.175-269.887l-13.772-22.565v-.001a13.318 13.318 0 00-11.45-6.424c-4.713 0-8.993 2.402-11.447 6.425l-13.774 22.565-25.716 6.127a13.317 13.317 0 00-9.649 8.9 13.32 13.32 0 002.572 12.876l17.205 20.072-2.12 26.352c-.379 4.698 1.672 9.157 5.484 11.928 3.811 2.77 8.686 3.344 13.04 1.532l24.406-10.16 24.407 10.16c4.341 1.808 9.217 1.245 13.04-1.531 3.812-2.771 5.863-7.23 5.484-11.928l-2.121-26.353 17.207-20.072a13.322 13.322 0 002.571-12.876c-1.458-4.482-5.065-7.81-9.648-8.9zm3.769 38.718a13.502 13.502 0 00-3.184 9.803l1.965 24.418-22.616-9.414a13.511 13.511 0 00-10.311 0l-22.615 9.414 1.964-24.415a13.499 13.499 0 00-3.186-9.809l-15.942-18.6 23.826-5.677a13.485 13.485 0 008.345-6.061l12.764-20.911 12.765 20.913a13.501 13.501 0 008.34 6.058l23.831 5.678z"/><path d="M506.905 68.661l-53.604-18.147a7.494 7.494 0 00-9.509 4.698 7.499 7.499 0 004.698 9.509L497 81.143v17.475c0 76.674-41.249 148.119-107.649 186.456l-16.043 9.262-16.042-9.262c-66.401-38.337-107.65-109.783-107.65-186.456V81.143l123.692-41.875 46.729 15.82a7.5 7.5 0 009.509-4.698 7.499 7.499 0 00-4.698-9.509l-49.135-16.635a7.49 7.49 0 00-4.811 0L239.71 68.661a7.5 7.5 0 00-5.095 7.104v22.854c0 22.649 3.371 44.871 9.739 66.039H19.1c-10.531 0-19.1 8.568-19.1 19.1v33.352c0 4.143 3.357 7.5 7.5 7.5s7.5-3.357 7.5-7.5v-33.352c0-2.261 1.839-4.1 4.1-4.1h118.433v39.855c0 7.884 6.413 14.297 14.297 14.297h40.559c7.884 0 14.298-6.413 14.298-14.297v-39.855h42.744c15.71 41.638 43.302 78.362 79.788 105.016v184.377c0 2.261-1.839 4.1-4.1 4.1h-36.95c-4.143 0-7.5 3.357-7.5 7.5s3.357 7.5 7.5 7.5h36.95c10.531 0 19.1-8.568 19.1-19.1V294.748a226.237 226.237 0 005.548 3.316l19.792 11.427a7.499 7.499 0 007.5 0l19.793-11.427C467.877 257.056 512 180.634 512 98.618V75.764a7.5 7.5 0 00-5.095-7.103zM191.686 218.809h-39.153v-39.152h39.153z"/></svg>