<svg xmlns="http://www.w3.org/2000/svg" version="1.1" width="512" viewBox="0 0 512.042 512.042" height="512" id="Capa_1"><g transform="rotate(-90 256.02 256.021)" id="g23"><g id="_x34_3_search"><path id="path2" transform="rotate(45 174.644 337.446)" fill="#8d9ca8" d="M149.252 264.667h50.634v145.57h-50.634z"/><path id="path4" fill="#fe646f" d="M20.106 491.915c-16.808-16.808-16.808-44.059 0-60.866L135.275 315.88c6.262-6.262 16.414-6.262 22.676 0l38.191 38.191c6.262 6.262 6.262 16.414 0 22.676L80.973 491.915c-16.808 16.808-44.059 16.808-60.867 0z"/><circle id="circle6" r="173.017" fill="#9facba" cy="180.538" cx="331.484"/><circle id="circle8" r="123.907" fill="#d8ecfe" cy="180.538" cx="331.484"/><path id="path10" fill="#8d9ca8" d="M453.825 58.197a175.312 175.312 0 0 0-12.58-11.409c55.91 67.965 52.111 168.583-11.409 232.102-63.52 63.519-164.138 67.318-232.102 11.409a174.884 174.884 0 0 0 11.409 12.58c67.567 67.567 177.116 67.567 244.683 0 67.567-67.567 67.566-177.115-.001-244.682z"/><path id="path12" fill="#fd4755" d="M196.141 354.071l-23.989-23.989c6.262 6.262 6.262 16.414 0 22.676L56.984 467.927c-12.548 12.548-30.915 15.723-46.413 9.536a42.899 42.899 0 0 0 9.536 14.453c16.808 16.808 44.058 16.808 60.866 0l115.169-115.169c6.261-6.262 6.261-16.414-.001-22.676z"/><path id="path14" fill="#c4e2ff" d="M419.099 92.923a124.524 124.524 0 0 0-10.271-9.185c38.894 48.605 35.837 119.937-9.185 164.959-45.023 45.023-116.354 48.079-164.959 9.185a124.707 124.707 0 0 0 9.185 10.271c48.311 48.311 126.92 48.311 175.23 0 48.311-48.311 48.311-126.919 0-175.23z"/></g><g id="g21"><path id="path17" d="M190.838 359.375a8.529 8.529 0 0 1 0 12.068L75.669 486.613c-6.712 6.712-15.637 10.408-25.13 10.408-9.493 0-18.417-3.696-25.13-10.408C18.697 479.899 15 470.974 15 461.482c0-9.493 3.697-18.417 10.41-25.13l37.038-37.038a7.5 7.5 0 0 0-10.606-10.607l-37.038 37.038C5.257 435.291 0 447.983 0 461.482c0 13.499 5.257 26.19 14.803 35.737 9.546 9.545 22.237 14.802 35.736 14.802 13.5 0 26.192-5.257 35.736-14.802L201.444 382.05a23.38 23.38 0 0 0 6.893-16.642c0-4.3-1.146-8.422-3.293-12.022l24.099-24.099c69.693 48.165 166.886 41.996 229.983-21.105 70.551-70.547 70.555-184.735.001-255.289C425.113 18.875 379.467.021 331.482.021a182.041 182.041 0 0 0-32.753 2.98 7.499 7.499 0 0 0-6.022 8.731 7.498 7.498 0 0 0 8.731 6.022 166.945 166.945 0 0 1 30.045-2.734c43.784 0 85.652 17.089 117.038 48.479 64.685 64.683 64.696 169.385 0 234.075-59.101 59.103-151.064 63.869-215.418 16.11-.092-.075-.178-.156-.274-.228a167.74 167.74 0 0 1-34.265-34.266c-.072-.097-.154-.184-.231-.277-63.511-85.58-30.279-210.871 71.01-251.835a7.502 7.502 0 0 0-5.625-13.907C155.169 57.082 118.291 189.63 182.734 282.877l-24.1 24.1a23.388 23.388 0 0 0-12.021-3.292 23.38 23.38 0 0 0-16.641 6.893L76.59 363.959a7.5 7.5 0 0 0 10.606 10.607l53.382-53.382a8.528 8.528 0 0 1 12.069 0zm4.11-17.104l-25.197-25.197 22.1-22.1a184.167 184.167 0 0 0 25.197 25.198z"/><path id="path19" d="M238.565 273.457c51.281 51.281 134.555 51.283 185.838 0 51.234-51.235 51.234-134.602 0-185.838-51.236-51.234-134.604-51.234-185.838 0-51.283 51.282-51.283 134.554 0 185.838zm92.919-209.271c29.809 0 59.618 11.347 82.312 34.04 45.387 45.387 45.387 119.237 0 164.623-45.419 45.421-119.203 45.421-164.624 0-21.949-21.948-34.037-51.181-34.037-82.312 0-64.787 52.358-116.351 116.349-116.351z"/></g></g></svg>