<?xml version="1.0" encoding="UTF-8" standalone="no"?>
<svg
   xmlns:dc="http://purl.org/dc/elements/1.1/"
   xmlns:cc="http://creativecommons.org/ns#"
   xmlns:rdf="http://www.w3.org/1999/02/22-rdf-syntax-ns#"
   xmlns:svg="http://www.w3.org/2000/svg"
   xmlns="http://www.w3.org/2000/svg"
   xmlns:sodipodi="http://sodipodi.sourceforge.net/DTD/sodipodi-0.dtd"
   xmlns:inkscape="http://www.inkscape.org/namespaces/inkscape"
   inkscape:version="1.0 (4035a4fb49, 2020-05-01)"
   sodipodi:docname="ui.svg"
   version="1.1"
   width="512"
   viewBox="0 0 512.042 512.042"
   height="512"
   enable-background="new 0 0 512.042 512.042"
   id="Capa_1">
  <metadata
     id="metadata30">
    <rdf:RDF>
      <cc:Work
         rdf:about="">
        <dc:format>image/svg+xml</dc:format>
        <dc:type
           rdf:resource="http://purl.org/dc/dcmitype/StillImage" />
      </cc:Work>
    </rdf:RDF>
  </metadata>
  <defs
     id="defs28" />
  <sodipodi:namedview
     inkscape:current-layer="Capa_1"
     inkscape:window-maximized="1"
     inkscape:window-y="-8"
     inkscape:window-x="-8"
     inkscape:cy="342.64734"
     inkscape:cx="216.10024"
     inkscape:zoom="0.83007813"
     showgrid="false"
     id="namedview26"
     inkscape:window-height="1017"
     inkscape:window-width="1920"
     inkscape:pageshadow="2"
     inkscape:pageopacity="0"
     guidetolerance="10"
     gridtolerance="10"
     objecttolerance="10"
     borderopacity="1"
     bordercolor="#666666"
     pagecolor="#ffffff" />
  <g
     transform="rotate(-90,256.02044,256.021)"
     id="g23">
    <g
       id="_x34_3_search">
      <path
         id="path2"
         transform="matrix(0.707,0.707,-0.707,0.707,289.745,-24.602)"
         fill="#8d9ca8"
         d="m 149.252,264.667 h 50.634 v 145.57 h -50.634 z" />
      <path
         id="path4"
         fill="#fe646f"
         d="m 20.106,491.915 c -16.808,-16.808 -16.808,-44.059 0,-60.866 L 135.275,315.88 c 6.262,-6.262 16.414,-6.262 22.676,0 l 38.191,38.191 c 6.262,6.262 6.262,16.414 0,22.676 L 80.973,491.915 c -16.808,16.808 -44.059,16.808 -60.867,0 z" />
      <circle
         id="circle6"
         r="173.017"
         fill="#9facba"
         cy="180.53799"
         cx="331.48401" />
      <circle
         id="circle8"
         r="123.907"
         fill="#d8ecfe"
         cy="180.53799"
         cx="331.48401" />
      <path
         id="path10"
         fill="#8d9ca8"
         d="m 453.825,58.197 c -4.048,-4.048 -8.25,-7.846 -12.58,-11.409 55.91,67.965 52.111,168.583 -11.409,232.102 -63.52,63.519 -164.138,67.318 -232.102,11.409 3.563,4.331 7.361,8.533 11.409,12.58 67.567,67.567 177.116,67.567 244.683,0 67.567,-67.567 67.566,-177.115 -0.001,-244.682 z" />
      <path
         id="path12"
         fill="#fd4755"
         d="m 196.141,354.071 -23.989,-23.989 c 6.262,6.262 6.262,16.414 0,22.676 L 56.984,467.927 c -12.548,12.548 -30.915,15.723 -46.413,9.536 2.101,5.261 5.276,10.193 9.536,14.453 16.808,16.808 44.058,16.808 60.866,0 L 196.142,376.747 c 6.261,-6.262 6.261,-16.414 -0.001,-22.676 z" />
      <path
         id="path14"
         fill="#c4e2ff"
         d="m 419.099,92.923 c -3.288,-3.288 -6.721,-6.345 -10.271,-9.185 38.894,48.605 35.837,119.937 -9.185,164.959 -45.023,45.023 -116.354,48.079 -164.959,9.185 2.841,3.55 5.897,6.983 9.185,10.271 48.311,48.311 126.92,48.311 175.23,0 48.311,-48.311 48.311,-126.919 0,-175.23 z" />
    </g>
    <g
       id="g21">
      <path
         id="path17"
         d="m 190.838,359.375 c 3.335,3.334 3.335,8.734 0,12.068 L 75.669,486.613 c -6.712,6.712 -15.637,10.408 -25.13,10.408 -9.493,0 -18.417,-3.696 -25.13,-10.408 C 18.697,479.899 15,470.974 15,461.482 c 0,-9.493 3.697,-18.417 10.41,-25.13 l 37.038,-37.038 c 2.929,-2.93 2.929,-7.678 0,-10.607 -2.929,-2.928 -7.678,-2.928 -10.606,0 L 14.804,425.745 C 5.257,435.291 0,447.983 0,461.482 c 0,13.499 5.257,26.19 14.803,35.737 9.546,9.545 22.237,14.802 35.736,14.802 13.5,0 26.192,-5.257 35.736,-14.802 L 201.444,382.05 c 4.445,-4.445 6.893,-10.355 6.893,-16.642 0,-4.3 -1.146,-8.422 -3.293,-12.022 l 24.099,-24.099 c 69.693,48.165 166.886,41.996 229.983,-21.105 70.551,-70.547 70.555,-184.735 0.001,-255.289 C 425.113,18.875 379.467,0.021 331.482,0.021 c -10.965,10e-4 -21.984,1.004 -32.753,2.98 -4.074,0.748 -6.771,4.657 -6.022,8.731 0.749,4.074 4.653,6.77 8.731,6.022 9.877,-1.813 19.986,-2.733 30.045,-2.734 43.784,0 85.652,17.089 117.038,48.479 64.685,64.683 64.696,169.385 0,234.075 -59.101,59.103 -151.064,63.869 -215.418,16.11 -0.092,-0.075 -0.178,-0.156 -0.274,-0.228 -13.076,-9.731 -24.701,-21.413 -34.265,-34.266 -0.072,-0.097 -0.154,-0.184 -0.231,-0.277 -63.511,-85.58 -30.279,-210.871 71.01,-251.835 3.84,-1.554 5.693,-5.925 4.141,-9.766 -1.553,-3.838 -5.921,-5.693 -9.766,-4.141 C 155.169,57.082 118.291,189.63 182.734,282.877 l -24.1,24.1 c -3.599,-2.146 -7.722,-3.292 -12.021,-3.292 -6.286,0 -12.196,2.448 -16.641,6.893 L 76.59,363.959 c -2.929,2.93 -2.929,7.678 0,10.607 2.929,2.928 7.678,2.928 10.606,0 l 53.382,-53.382 c 3.335,-3.336 8.734,-3.336 12.069,0 z m 4.11,-17.104 -25.197,-25.197 22.1,-22.1 c 7.292,8.866 15.706,17.39 25.197,25.198 z" />
      <path
         id="path19"
         d="m 238.565,273.457 c 51.281,51.281 134.555,51.283 185.838,0 51.234,-51.235 51.234,-134.602 0,-185.838 -51.236,-51.234 -134.604,-51.234 -185.838,0 -51.283,51.282 -51.283,134.554 0,185.838 z M 331.484,64.186 c 29.809,0 59.618,11.347 82.312,34.04 45.387,45.387 45.387,119.237 0,164.623 -45.419,45.421 -119.203,45.421 -164.624,0 -21.949,-21.948 -34.037,-51.181 -34.037,-82.312 0,-64.787 52.358,-116.351 116.349,-116.351 z" />
    </g>
  </g>
</svg>
