<?xml version="1.0" encoding="iso-8859-1"?>
<!-- Generator: Adobe Illustrator 19.0.0, SVG Export Plug-In . SVG Version: 6.00 Build 0)  -->
<svg version="1.1" id="Capa_1" xmlns="http://www.w3.org/2000/svg" xmlns:xlink="http://www.w3.org/1999/xlink" x="0px" y="0px"
	 viewBox="0 0 496 496" style="enable-background:new 0 0 496 496;" xml:space="preserve">
<path style="fill:#277BAA;" d="M408,80H272V46.664C272.031,20.905,292.905,0.031,318.664,0h42.672
	C387.095,0.031,407.969,20.905,408,46.664V80z M288,64h104V46.664C391.978,29.738,378.262,16.022,361.336,16h-42.672
	C301.738,16.022,288.022,29.738,288,46.664V64z"/>
<path style="fill:#4799CF;" d="M200,129.424V432h168h112V64H200V129.424z"/>
<path style="fill:#428DC5;" d="M432,104l-24,26.664V184h48v-53.336L432,104z"/>
<path style="fill:#DBDBDB;" d="M416,64h16v64h-16V64z"/>
<path style="fill:#F0F0F0;" d="M424,112l-24,26.664V192h48v-53.336L424,112z"/>
<path style="fill:#428DC5;" d="M200,136.984V432h161h23V120H200V136.984z"/>
<path style="fill:#F7BA61;" d="M16,136h352v352H16V136z"/>
<path style="fill:#D68F29;" d="M192,400c-39.696,0-72-26.152-72-58.288V304c0-4.418,3.582-8,8-8s8,3.582,8,8v37.712
	c0,23.32,25.12,42.288,56,42.288s56-18.968,56-42.288V304c0-4.418,3.582-8,8-8s8,3.582,8,8v37.712C264,373.848,231.696,400,192,400z
	"/>
<g>
	<path style="fill:#EA9D2D;" d="M152,288c-4.418,0-8-3.582-8-8v-2.792c-0.175-4.531-2.747-8.626-6.752-10.752
		c-5.734-3.263-12.762-3.263-18.496,0c-4.005,2.126-6.577,6.221-6.752,10.752V280c0,4.418-3.582,8-8,8s-8-3.582-8-8v-2.792
		c0.139-10.204,5.715-19.559,14.624-24.536c10.751-6.213,24.001-6.213,34.752,0c8.906,4.981,14.48,14.333,14.624,24.536V280
		C160,284.418,156.418,288,152,288z"/>
	<path style="fill:#EA9D2D;" d="M280,288c-4.418,0-8-3.582-8-8v-2.792c-0.175-4.531-2.747-8.627-6.752-10.752
		c-5.734-3.263-12.762-3.263-18.496,0c-4.005,2.126-6.577,6.221-6.752,10.752V280c0,4.418-3.582,8-8,8s-8-3.582-8-8v-2.792
		c0.139-10.204,5.715-19.559,14.624-24.536c10.751-6.213,24.001-6.213,34.752,0c8.906,4.981,14.48,14.333,14.624,24.536V280
		C288,284.418,284.418,288,280,288L280,288z"/>
</g>
<path style="fill:#FBB540;" d="M16,136h352v80H16V136z"/>
<path style="fill:#EA9D2D;" d="M368,216H16l61.216-40L16,136h352l-61.216,40L368,216H16"/>
<path d="M256,296c-4.418,0-8,3.582-8,8v37.712c0,23.32-25.12,42.288-56,42.288s-56-18.968-56-42.288V304c0-4.418-3.582-8-8-8
	s-8,3.582-8,8v37.712C120,373.848,152.304,400,192,400s72-26.152,72-58.288V304C264,299.582,260.418,296,256,296z"/>
<path d="M137.248,266.456c4.005,2.126,6.577,6.221,6.752,10.752V280c0,4.418,3.582,8,8,8s8-3.582,8-8v-2.792
	c-0.141-10.206-5.716-19.562-14.624-24.544c-10.751-6.213-24.001-6.213-34.752,0c-8.912,4.979-14.487,14.337-14.624,24.544V280
	c0,4.418,3.582,8,8,8s8-3.582,8-8v-2.792c0.175-4.531,2.747-8.626,6.752-10.752C124.486,263.193,131.514,263.193,137.248,266.456z"
	/>
<path d="M273.376,252.664c-10.751-6.213-24.001-6.213-34.752,0c-8.912,4.979-14.487,14.337-14.624,24.544V280c0,4.418,3.582,8,8,8
	s8-3.582,8-8v-2.792c0.175-4.531,2.747-8.626,6.752-10.752c5.734-3.263,12.762-3.263,18.496,0c4.005,2.125,6.577,6.221,6.752,10.752
	V280c0,4.418,3.582,8,8,8s8-3.582,8-8v-2.792C287.859,267.002,282.284,257.646,273.376,252.664L273.376,252.664z"/>
<path d="M480,64h-72V46.664C407.969,20.905,387.095,0.031,361.336,0h-42.672C292.905,0.031,272.031,20.905,272,46.664V64h-72
	c-4.418,0-8,3.582-8,8v56H16c-0.979,0.014-1.948,0.21-2.856,0.576c-0.275,0.126-0.542,0.267-0.8,0.424
	c-0.572,0.295-1.109,0.655-1.6,1.072c-0.251,0.231-0.489,0.477-0.712,0.736c-0.401,0.461-0.745,0.969-1.024,1.512
	c-0.173,0.304-0.325,0.62-0.456,0.944c-0.056,0.16-0.168,0.288-0.216,0.456c-0.141,0.568-0.216,1.151-0.224,1.736
	C8.112,135.648,8,135.808,8,136v352c0,4.418,3.582,8,8,8h352c4.418,0,8-3.582,8-8v-48h104c4.418,0,8-3.582,8-8V72
	C488,67.582,484.418,64,480,64z M424,124l16,17.776V184h-32v-42.264L424,124z M288,46.664c0.022-16.926,13.738-30.642,30.664-30.664
	h42.672c16.926,0.022,30.642,13.738,30.664,30.664V64H288V46.664z M341.128,144L302.4,169.304
	c-3.698,2.418-4.736,7.376-2.318,11.074c0.604,0.925,1.394,1.714,2.318,2.318L341.128,208H42.872l38.72-25.304
	c3.698-2.418,4.736-7.376,2.318-11.074c-0.604-0.925-1.394-1.714-2.318-2.318L42.872,144H341.128z M360,201.216L321.408,176
	L360,150.784V201.216z M24,150.816L62.592,176L24,201.216L24,150.816z M360,480H24V224h336V480z M472,424h-96V136
	c0-0.192-0.096-0.352-0.112-0.544c-0.008-0.585-0.083-1.168-0.224-1.736c-0.048-0.168-0.16-0.296-0.216-0.456
	c-0.131-0.324-0.283-0.64-0.456-0.944c-0.279-0.543-0.623-1.051-1.024-1.512c-0.223-0.259-0.461-0.505-0.712-0.736
	c-0.491-0.417-1.028-0.777-1.6-1.072c-1.101-0.669-2.368-1.016-3.656-1H208V80h208v28.928l-21.944,24.392
	c-1.326,1.464-2.059,3.369-2.056,5.344V192c0,4.418,3.582,8,8,8h48c4.418,0,8-3.582,8-8v-53.336c0.003-1.975-0.73-3.88-2.056-5.344
	L432,108.928V80h40V424z"/>
<g>
</g>
<g>
</g>
<g>
</g>
<g>
</g>
<g>
</g>
<g>
</g>
<g>
</g>
<g>
</g>
<g>
</g>
<g>
</g>
<g>
</g>
<g>
</g>
<g>
</g>
<g>
</g>
<g>
</g>
</svg>
