<svg version="1.1" id="Capa_1" xmlns="http://www.w3.org/2000/svg" x="0" y="0" viewBox="0 0 496 496" xml:space="preserve"><path d="M408 80H272V46.664C272.031 20.905 292.905.031 318.664 0h42.672C387.095.031 407.969 20.905 408 46.664V80zM288 64h104V46.664c-.022-16.926-13.738-30.642-30.664-30.664h-42.672c-16.926.022-30.642 13.738-30.664 30.664V64z" fill="#277baa"/><path d="M200 129.424V432h280V64H200v65.424z" fill="#4799cf"/><path d="M432 104l-24 26.664V184h48v-53.336L432 104z" fill="#428dc5"/><path d="M416 64h16v64h-16V64z" fill="#dbdbdb"/><path d="M424 112l-24 26.664V192h48v-53.336L424 112z" fill="#f0f0f0"/><path d="M200 136.984V432h184V120H200v16.984z" fill="#428dc5"/><path d="M16 136h352v352H16V136z" fill="#f7ba61"/><path d="M192 400c-39.696 0-72-26.152-72-58.288V304a8 8 0 0 1 16 0v37.712c0 23.32 25.12 42.288 56 42.288s56-18.968 56-42.288V304a8 8 0 0 1 16 0v37.712C264 373.848 231.696 400 192 400z" fill="#d68f29"/><path d="M152 288a8 8 0 0 1-8-8v-2.792a12.729 12.729 0 0 0-6.752-10.752 18.697 18.697 0 0 0-18.496 0A12.729 12.729 0 0 0 112 277.208V280a8 8 0 0 1-16 0v-2.792a28.552 28.552 0 0 1 14.624-24.536 34.727 34.727 0 0 1 34.752 0A28.575 28.575 0 0 1 160 277.208V280a8 8 0 0 1-8 8zm128 0a8 8 0 0 1-8-8v-2.792a12.728 12.728 0 0 0-6.752-10.752 18.697 18.697 0 0 0-18.496 0A12.729 12.729 0 0 0 240 277.208V280a8 8 0 0 1-16 0v-2.792a28.552 28.552 0 0 1 14.624-24.536 34.727 34.727 0 0 1 34.752 0A28.575 28.575 0 0 1 288 277.208V280a8 8 0 0 1-8 8z" fill="#ea9d2d"/><path d="M16 136h352v80H16v-80z" fill="#fbb540"/><path d="M368 216H16l61.216-40L16 136h352l-61.216 40L368 216H16" fill="#ea9d2d"/><path d="M256 296a8 8 0 0 0-8 8v37.712c0 23.32-25.12 42.288-56 42.288s-56-18.968-56-42.288V304a8 8 0 0 0-16 0v37.712C120 373.848 152.304 400 192 400s72-26.152 72-58.288V304a8 8 0 0 0-8-8zm-118.752-29.544A12.729 12.729 0 0 1 144 277.208V280a8 8 0 0 0 16 0v-2.792a28.575 28.575 0 0 0-14.624-24.544 34.727 34.727 0 0 0-34.752 0A28.553 28.553 0 0 0 96 277.208V280a8 8 0 0 0 16 0v-2.792a12.729 12.729 0 0 1 6.752-10.752 18.697 18.697 0 0 1 18.496 0zm136.128-13.792a34.727 34.727 0 0 0-34.752 0A28.553 28.553 0 0 0 224 277.208V280a8 8 0 0 0 16 0v-2.792a12.729 12.729 0 0 1 6.752-10.752 18.697 18.697 0 0 1 18.496 0A12.728 12.728 0 0 1 272 277.208V280a8 8 0 0 0 16 0v-2.792a28.575 28.575 0 0 0-14.624-24.544z"/><path d="M480 64h-72V46.664C407.969 20.905 387.095.031 361.336 0h-42.672C292.905.031 272.031 20.905 272 46.664V64h-72a8 8 0 0 0-8 8v56H16a7.947 7.947 0 0 0-2.856.576 7.736 7.736 0 0 0-.8.424 8.47 8.47 0 0 0-1.6 1.072 8.836 8.836 0 0 0-.712.736 7.59 7.59 0 0 0-1.024 1.512c-.173.304-.325.62-.456.944-.056.16-.168.288-.216.456a7.642 7.642 0 0 0-.224 1.736c0 .192-.112.352-.112.544v352a8 8 0 0 0 8 8h352a8 8 0 0 0 8-8v-48h104a8 8 0 0 0 8-8V72a8 8 0 0 0-8-8zm-56 60l16 17.776V184h-32v-42.264L424 124zM288 46.664c.022-16.926 13.738-30.642 30.664-30.664h42.672c16.926.022 30.642 13.738 30.664 30.664V64H288V46.664zM341.128 144L302.4 169.304a8 8 0 0 0 0 13.392L341.128 208H42.872l38.72-25.304a8 8 0 0 0 0-13.392L42.872 144h298.256zM360 201.216L321.408 176 360 150.784v50.432zm-336-50.4L62.592 176 24 201.216v-50.4zM360 480H24V224h336v256zm112-56h-96V136c0-.192-.096-.352-.112-.544a7.642 7.642 0 0 0-.224-1.736c-.048-.168-.16-.296-.216-.456a7.884 7.884 0 0 0-.456-.944 7.59 7.59 0 0 0-1.024-1.512 8.836 8.836 0 0 0-.712-.736 8.47 8.47 0 0 0-1.6-1.072 6.877 6.877 0 0 0-3.656-1H208V80h208v28.928l-21.944 24.392a7.942 7.942 0 0 0-2.056 5.344V192a8 8 0 0 0 8 8h48a8 8 0 0 0 8-8v-53.336a7.942 7.942 0 0 0-2.056-5.344L432 108.928V80h40v344z"/></svg>