<?xml version="1.0" encoding="iso-8859-1"?>
<!-- Generator: Adobe Illustrator 19.0.0, SVG Export Plug-In . SVG Version: 6.00 Build 0)  -->
<svg version="1.1" id="Capa_1" xmlns="http://www.w3.org/2000/svg" xmlns:xlink="http://www.w3.org/1999/xlink" x="0px" y="0px"
	 viewBox="0 0 496 496" style="enable-background:new 0 0 496 496;" xml:space="preserve">
<g>
	<g>
		<g>
			<path d="M136,341.712V304c0-4.418-3.582-8-8-8s-8,3.582-8,8v37.712C120,373.848,152.304,400,192,400s72-26.152,72-58.288V304
				c0-4.418-3.582-8-8-8s-8,3.582-8,8v37.712c0,23.32-25.12,42.288-56,42.288S136,365.032,136,341.712z"/>
			<path d="M104,288c4.418,0,8-3.582,8-8v-2.792c0.175-4.531,2.747-8.627,6.752-10.752c5.734-3.263,12.762-3.263,18.496,0
				c4.005,2.125,6.577,6.221,6.752,10.752V280c0,4.418,3.582,8,8,8s8-3.582,8-8v-2.792c-0.141-10.206-5.716-19.562-14.624-24.544
				c-10.751-6.213-24.001-6.213-34.752,0c-8.912,4.979-14.487,14.337-14.624,24.544V280C96,284.418,99.582,288,104,288z"/>
			<path d="M232,288c4.418,0,8-3.582,8-8v-2.792c0.175-4.531,2.747-8.627,6.752-10.752c5.734-3.263,12.762-3.263,18.496,0
				c4.005,2.125,6.577,6.221,6.752,10.752V280c0,4.418,3.582,8,8,8s8-3.582,8-8v-2.792c-0.141-10.206-5.716-19.562-14.624-24.544
				c-10.751-6.213-24.001-6.213-34.752,0c-8.912,4.979-14.487,14.337-14.624,24.544V280C224,284.418,227.582,288,232,288z"/>
			<path d="M480,64h-72V46.664C407.969,20.905,387.095,0.031,361.336,0h-42.672C292.905,0.031,272.031,20.905,272,46.664V64h-72
				c-4.418,0-8,3.582-8,8v56H16c-0.979,0.014-1.948,0.21-2.856,0.576c-0.275,0.126-0.542,0.267-0.8,0.424
				c-0.572,0.295-1.109,0.655-1.6,1.072c-0.251,0.231-0.489,0.477-0.712,0.736c-0.401,0.461-0.745,0.969-1.024,1.512
				c-0.173,0.304-0.325,0.62-0.456,0.944c-0.056,0.16-0.168,0.288-0.216,0.456c-0.141,0.568-0.216,1.151-0.224,1.736
				C8.112,135.648,8,135.808,8,136v352c0,4.418,3.582,8,8,8h352c4.418,0,8-3.582,8-8v-48h104c4.418,0,8-3.582,8-8V72
				C488,67.582,484.418,64,480,64z M288,46.664c0.022-16.926,13.738-30.642,30.664-30.664h42.672
				c16.926,0.022,30.642,13.738,30.664,30.664V64H288V46.664z M341.128,144L302.4,169.304c-3.698,2.418-4.736,7.375-2.318,11.074
				c0.604,0.925,1.394,1.714,2.318,2.318L341.128,208H42.872l38.72-25.304c3.698-2.418,4.736-7.375,2.318-11.074
				c-0.604-0.925-1.394-1.714-2.318-2.318L42.872,144H341.128z M24,150.816L62.592,176L24,201.216V150.816z M360,480H24V224h336V480
				z M360,201.216L321.408,176L360,150.784V201.216z M472,424h-96V136c0-0.192-0.096-0.352-0.112-0.544
				c-0.008-0.585-0.083-1.168-0.224-1.736c-0.048-0.168-0.16-0.296-0.216-0.456c-0.131-0.324-0.283-0.64-0.456-0.944
				c-0.279-0.543-0.623-1.051-1.024-1.512c-0.223-0.259-0.461-0.505-0.712-0.736c-0.491-0.417-1.028-0.777-1.6-1.072
				c-1.101-0.669-2.368-1.016-3.656-1H208V80h208v28.928l-21.944,24.392c-1.326,1.464-2.059,3.369-2.056,5.344V192
				c0,4.418,3.582,8,8,8h48c4.418,0,8-3.582,8-8v-53.336c0.003-1.975-0.73-3.88-2.056-5.344L432,108.928V80h40V424z M424,124
				l16,17.776V184h-32v-42.264L424,124z"/>
		</g>
	</g>
</g>
<g>
</g>
<g>
</g>
<g>
</g>
<g>
</g>
<g>
</g>
<g>
</g>
<g>
</g>
<g>
</g>
<g>
</g>
<g>
</g>
<g>
</g>
<g>
</g>
<g>
</g>
<g>
</g>
<g>
</g>
</svg>
