<svg version="1.1" id="Capa_1" xmlns="http://www.w3.org/2000/svg" x="0" y="0" viewBox="0 0 496 496" xml:space="preserve"><path d="M136 341.712V304a8 8 0 00-16 0v37.712C120 373.848 152.304 400 192 400s72-26.152 72-58.288V304a8 8 0 00-16 0v37.712c0 23.32-25.12 42.288-56 42.288s-56-18.968-56-42.288zM104 288a8 8 0 008-8v-2.792a12.728 12.728 0 016.752-10.752 18.697 18.697 0 0118.496 0A12.728 12.728 0 01144 277.208V280a8 8 0 0016 0v-2.792a28.575 28.575 0 00-14.624-24.544 34.727 34.727 0 00-34.752 0A28.553 28.553 0 0096 277.208V280a8 8 0 008 8zm128 0a8 8 0 008-8v-2.792a12.728 12.728 0 016.752-10.752 18.697 18.697 0 0118.496 0A12.728 12.728 0 01272 277.208V280a8 8 0 0016 0v-2.792a28.575 28.575 0 00-14.624-24.544 34.727 34.727 0 00-34.752 0A28.553 28.553 0 00224 277.208V280a8 8 0 008 8z"/><path d="M480 64h-72V46.664C407.969 20.905 387.095.031 361.336 0h-42.672C292.905.031 272.031 20.905 272 46.664V64h-72a8 8 0 00-8 8v56H16a7.947 7.947 0 00-2.856.576 7.736 7.736 0 00-.8.424 8.47 8.47 0 00-1.6 1.072 8.836 8.836 0 00-.712.736 7.59 7.59 0 00-1.024 1.512c-.173.304-.325.62-.456.944-.056.16-.168.288-.216.456a7.642 7.642 0 00-.224 1.736c0 .192-.112.352-.112.544v352a8 8 0 008 8h352a8 8 0 008-8v-48h104a8 8 0 008-8V72a8 8 0 00-8-8zM288 46.664c.022-16.926 13.738-30.642 30.664-30.664h42.672c16.926.022 30.642 13.738 30.664 30.664V64H288V46.664zM341.128 144L302.4 169.304a8 8 0 000 13.392L341.128 208H42.872l38.72-25.304a8 8 0 000-13.392L42.872 144h298.256zM24 150.816L62.592 176 24 201.216v-50.4zM360 480H24V224h336v256zm0-278.784L321.408 176 360 150.784v50.432zM472 424h-96V136c0-.192-.096-.352-.112-.544a7.642 7.642 0 00-.224-1.736c-.048-.168-.16-.296-.216-.456a7.884 7.884 0 00-.456-.944 7.59 7.59 0 00-1.024-1.512 8.836 8.836 0 00-.712-.736 8.47 8.47 0 00-1.6-1.072 6.877 6.877 0 00-3.656-1H208V80h208v28.928l-21.944 24.392a7.942 7.942 0 00-2.056 5.344V192a8 8 0 008 8h48a8 8 0 008-8v-53.336a7.942 7.942 0 00-2.056-5.344L432 108.928V80h40v344zm-48-300l16 17.776V184h-32v-42.264L424 124z"/></svg>