<svg xmlns="http://www.w3.org/2000/svg" viewBox="0 0 512 512"><path d="M336.8 62.2H51a51.1 51.1 0 00-51.1 51V399A51.1 51.1 0 0051.1 450h285.7a51.1 51.1 0 0051-51V113.2a51.1 51.1 0 00-51-51.1z" fill="#b4bbcc"/><path d="M313.4 114h-239a22.7 22.7 0 00-22.6 22.7v238.9a22.7 22.7 0 0022.7 22.7h238.9a22.7 22.7 0 0022.7-22.7v-239a22.7 22.7 0 00-22.7-22.7z" fill="#fff"/><path d="M74.7 159.6a22.7 22.7 0 0122.7-22.8H336v-.1a22.7 22.7 0 00-22.7-22.8h-239a22.7 22.7 0 00-22.6 22.8v238.9a22.7 22.7 0 0022.7 22.7h.2V159.6z" opacity=".1"/><path d="M237 371.3c-9.3 0-18.2-3.5-24.9-10l-116.8-114a35.6 35.6 0 0149.7-50.9l85.4 83.2c34.2-48.7 105.5-134.3 226.8-212a35.6 35.6 0 1138.4 60C332.6 231.8 269.1 351 268.5 352.1a35.6 35.6 0 01-31.6 19.1z" fill="#a5eb78"/></svg>