<svg xmlns="http://www.w3.org/2000/svg" viewBox="0 0 512 512" style="enable-background:new 0 0 511.999 511.999" xml:space="preserve"><path style="fill:#ff3c63" d="M265 168.5a16.7 16.7 0 1 1-31-12.9 16.7 16.7 0 0 1 31 13zm73.9 41.5-52-84.2-11.5-18.6c-1-1.7-3-2.5-4.9-2.1h-.1l-105 24-12.8 3a4.6 4.6 0 0 0-3.3 2.7l-38 91-74.2 177c-.8 2.3.3 4.9 2.6 5.8l18 7.6L221 484.6l1.8.3c1.8 0 3.5-1 4.2-2.7l29.2-69.7 70.6-168.7 12.4-29.6c.6-1.3.5-2.9-.3-4.2z"/><path style="fill:#ff557e" d="m286.8 125.8-116.4 27.4-112.6 263-18.1-7.6a4.6 4.6 0 0 1-2.6-5.8l74.1-177 38.1-91a4.6 4.6 0 0 1 3.3-2.8l12.8-2.9 105.1-24c2-.4 3.8.4 4.9 2.1l11.4 18.6z"/><path style="fill:#ea2f5c" d="m326.9 243.8-70.7 168.7-29.2 69.7a4.6 4.6 0 0 1-6 2.4 149.5 149.5 0 0 1 105.8-240.8z"/><path style="fill:#e0e0e3" d="M281.3 227.8c4.1 1.7 6 6.5 4.4 10.6l-7.5 17.8-68.8 164.3a8.1 8.1 0 0 1-10.6 4.3l-6.3-2.6-94.7-39.7a8.1 8.1 0 0 1-4.3-10.6l76.2-182c1.7-4.2 6.5-6.1 10.6-4.4l101 42.3z"/><path style="fill:#d1d1d1" d="M278.2 256.2 206.3 428l-13.8-5.8a149.5 149.5 0 0 1 85.8-166z"/><path style="fill:#ffce00" d="M296 133.8c-.7 1-1.6 2-2.6 2.6l-8.6-13.9c12.2-21.7 18.7-43 18.8-62a55 55 0 0 0-12.3-37.9c-7-7.3-15.2-9.3-22.7-5.4-11.8 6-19.1 30.4-20.6 68.5-1.3 31 1.9 60.1 1.9 60.4a7.6 7.6 0 0 1-15.1 1.7c-.2-1.3-3.3-30.5-2-62.5 1.7-45.9 11.2-72.6 28.8-81.7 13.6-7 29.2-3.7 40.8 8.6 20 21.1 25.8 67-6.5 121.6zM227.6 280a16 16 0 0 0-8.7-8.8l-5.8-2.5 4.5-10.9a7.6 7.6 0 0 0-14-5.8l-4.6 11a23.7 23.7 0 0 0-30 13.2 23.7 23.7 0 0 0 12.9 31.3l11.4 4.8a8.6 8.6 0 0 1 4.7 11.3 8.7 8.7 0 0 1-11.4 4.7l-5.7-2.4-12.9-5.4c-.2 0-.4-.3-.5-.5s0-.5 0-.7a7.6 7.6 0 0 0-14-6 16 16 0 0 0 8.7 21.3l5.8 2.4-4.6 11a7.6 7.6 0 0 0 14 5.8l4.6-11a23.7 23.7 0 0 0 30-13.3 24 24 0 0 0-12.8-31.2l-11.5-4.8a8.6 8.6 0 0 1-4.6-11.4 8.6 8.6 0 0 1 11.3-4.7l5.8 2.4 12.8 5.4c.3.1.4.3.5.5s.1.5 0 .8a7.6 7.6 0 0 0 14 5.9 16 16 0 0 0 .1-12.4z"/><circle style="fill:#ffce00" cx="339.1" cy="392.8" r="119.2"/><circle style="fill:#ffda2d" cx="339.1" cy="392.8" r="81.2"/><circle style="fill:#ffe571" cx="339.1" cy="392.8" r="61.2"/><path style="fill:#ffce00" d="M344.8 386.5h-10.5a6.1 6.1 0 0 1 0-12.3h16.6a7.6 7.6 0 0 0 15.2-.4c0-8.2-6.6-14.8-14.8-14.8H347v-8.8a7.6 7.6 0 1 0-15.2 0v9a21.4 21.4 0 0 0 2.4 42.5h10.5a6.1 6.1 0 0 1 0 12.3H328a7.6 7.6 0 0 0-15.2.4c0 8.1 6.7 14.8 14.9 14.8h4.1v8.8a7.6 7.6 0 1 0 15.2 0v-9a21.4 21.4 0 0 0-2.3-42.5z"/><path style="fill:#ff3c63" d="M418.7 173.1H390a7.6 7.6 0 1 1 0-15.2h28.7a7.6 7.6 0 1 1 0 15.2zM467.6 229.2h-28.8a7.6 7.6 0 1 1 0-15.2h28.8a7.6 7.6 0 1 1 0 15.2zM119 125H90.3a7.6 7.6 0 1 1 0-15.2H119a7.6 7.6 0 1 1 0 15.3zM192.3 49.3h-28.7a7.6 7.6 0 1 1 0-15.3h28.7a7.6 7.6 0 1 1 0 15.3z"/></svg>