<svg xmlns="http://www.w3.org/2000/svg" xml:space="preserve" width="152" height="24" aria-hidden="true" class="JC8gmf UsaErf"><path fill="#4285f4" d="M17.78 4.575a.676.676 0 0 1-.662-.547c-.297-1.53-1.55-2.558-3.116-2.558s-2.823 1.028-3.12 2.558a.675.675 0 1 1-1.325-.256C9.974 1.622 11.801.12 14 .12s4.027 1.502 4.444 3.652a.675.675 0 0 1-.664.803"/><path fill="#fabb05" d="m24.46 9.06.051-.396a2.32 2.32 0 0 0-.555-1.82 2.3 2.3 0 0 0-1.73-.784H7.837a6.2 6.2 0 0 0 1.811 4.527 6.17 6.17 0 0 0 8.74.005c1.662-1.62 3.891-2.223 6.073-1.532"/><path fill="#4285f4" d="M5.773 6.06a2.3 2.3 0 0 0-1.729.784 2.32 2.32 0 0 0-.555 1.82l1.6 12.492a6.14 6.14 0 0 0 4.565-1.804 6.21 6.21 0 0 0-.006-8.766A6.2 6.2 0 0 1 7.837 6.06Z"/><path fill="#34a853" d="M24.462 9.049c-2.038-.632-4.306-.23-6.073 1.543a6.21 6.21 0 0 0 .005 8.765 6.2 6.2 0 0 1 1.81 4.523h.332a2.306 2.306 0 0 0 2.284-2.015z"/><path fill="#e94235" d="M9.654 19.352a6.14 6.14 0 0 1-4.565 1.805l.09.707a2.306 2.306 0 0 0 2.286 2.016h12.74a6.2 6.2 0 0 0-1.81-4.523 6.17 6.17 0 0 0-8.741-.005"/><path d="M143.021 23.732q-1.104 0-1.92-.352-.8-.336-1.312-.88t-.72-1.136l1.968-.8q.257.593.768.944.53.368 1.216.368.977 0 1.568-.608.592-.592.592-1.728v-.64h-.128q-.384.544-1.008.832t-1.424.288q-.992 0-1.872-.512-.864-.512-1.408-1.456-.528-.945-.528-2.24 0-1.312.528-2.24.544-.945 1.408-1.456a3.67 3.67 0 0 1 1.872-.512q.8 0 1.424.288.624.272 1.008.832h.128v-.864h2.016v7.6q0 1.312-.512 2.272a3.5 3.5 0 0 1-1.456 1.472q-.927.528-2.208.528m.032-5.616q.56 0 1.04-.256.496-.272.784-.784.304-.528.304-1.264 0-.768-.304-1.28a1.87 1.87 0 0 0-.784-.768 2.2 2.2 0 0 0-1.04-.256q-.56 0-1.056.256-.495.256-.8.768-.288.512-.288 1.28 0 .752.288 1.28.305.51.8.768.496.255 1.056.256m-12.492 1.904v-8.16h1.968v1.024h.128a2.5 2.5 0 0 1 1.04-.928 3.1 3.1 0 0 1 1.456-.352q1.504 0 2.256.912t.752 2.432v5.072h-2.096v-4.816q0-.8-.416-1.216-.399-.432-1.104-.432-.576 0-1.008.32-.416.304-.656.832a2.85 2.85 0 0 0-.224 1.152v4.16zm-3.478 0v-8.16h2.096v8.16zm1.056-9.056a1.3 1.3 0 0 1-.96-.4 1.3 1.3 0 0 1-.4-.96q0-.56.4-.944.4-.4.96-.4t.944.4q.4.384.4.944t-.4.96q-.384.4-.944.4m-10.4 12.512V11.86h1.967v.992h.128q.208-.32.544-.608.352-.288.832-.464t1.072-.176q1.12 0 2 .56.895.545 1.408 1.52.528.976.528 2.256t-.528 2.256a3.9 3.9 0 0 1-1.408 1.536q-.88.544-2 .544-.88 0-1.52-.368-.624-.384-.928-.864h-.128l.128 1.152v3.28zm4.175-5.136q.592 0 1.088-.288a2.23 2.23 0 0 0 .816-.848q.32-.544.32-1.264 0-.736-.32-1.264a2.14 2.14 0 0 0-.816-.816 2.1 2.1 0 0 0-2.176 0q-.496.288-.816.832-.304.528-.304 1.248t.304 1.264q.32.529.816.832.512.304 1.088.304m-13.25 5.136V11.86h1.967v.992h.128q.208-.32.544-.608.352-.288.832-.464t1.072-.176q1.12 0 2 .56.896.545 1.408 1.52.528.976.528 2.256t-.528 2.256a3.9 3.9 0 0 1-1.408 1.536q-.88.544-2 .544-.88 0-1.52-.368-.624-.384-.928-.864h-.128l.128 1.152v3.28zm4.175-5.136q.591 0 1.088-.288.511-.304.816-.848.32-.544.32-1.264 0-.736-.32-1.264a2.14 2.14 0 0 0-.816-.816 2.1 2.1 0 0 0-2.176 0q-.496.288-.816.832-.304.528-.304 1.248t.304 1.264q.32.529.816.832.512.304 1.088.304m-9.173 1.936q-1.28 0-2.273-.56a4.2 4.2 0 0 1-1.536-1.552q-.543-.992-.544-2.224 0-1.231.544-2.208a4.05 4.05 0 0 1 1.536-1.552q.993-.576 2.272-.576 1.281 0 2.256.576.976.576 1.52 1.552.56.976.56 2.208t-.56 2.224a4.1 4.1 0 0 1-1.52 1.552q-.975.56-2.256.56m0-1.952q.608 0 1.103-.272a2.14 2.14 0 0 0 .816-.816q.32-.545.32-1.296 0-.752-.32-1.28a2.14 2.14 0 0 0-.816-.816 2.13 2.13 0 0 0-1.088-.288q-.608 0-1.136.288a2.26 2.26 0 0 0-.832.816q-.303.528-.304 1.28 0 .75.304 1.296.32.528.832.816.528.272 1.12.272M90.936 20.02V8.564h2.096v2.896l-.128 1.424h.128a2.6 2.6 0 0 1 1.008-.912 3 3 0 0 1 1.472-.368q1.008 0 1.696.416.688.4 1.024 1.152.352.75.352 1.776v5.072h-2.096v-4.816q0-.544-.208-.896a1.3 1.3 0 0 0-.544-.56 1.6 1.6 0 0 0-.8-.192q-.56 0-.992.32-.432.304-.672.832a2.8 2.8 0 0 0-.24 1.168v4.144zm-4.878.256q-.975 0-1.84-.368a4.2 4.2 0 0 1-1.488-1.088q-.623-.735-.944-1.792l2.032-.8q.225.848.784 1.424.56.576 1.472.576.45 0 .848-.144a1.5 1.5 0 0 0 .64-.464q.256-.304.256-.752 0-.432-.208-.736-.207-.32-.704-.592-.48-.29-1.312-.592l-.704-.256a8 8 0 0 1-.944-.432q-.464-.272-.864-.656a3.4 3.4 0 0 1-.624-.912q-.24-.511-.24-1.168 0-.896.464-1.616.465-.735 1.296-1.168.832-.432 1.936-.432 1.152 0 1.904.4.753.384 1.168.944.432.56.608 1.088l-1.904.8a1.9 1.9 0 0 0-.32-.608 1.65 1.65 0 0 0-.576-.464 1.9 1.9 0 0 0-.848-.176q-.463 0-.832.16a1.3 1.3 0 0 0-.576.416.93.93 0 0 0-.208.608q0 .512.432.88.45.368 1.424.688l.72.24q.61.208 1.152.496.56.27.992.688t.672.992q.256.576.256 1.376 0 .88-.352 1.536a3.1 3.1 0 0 1-.928 1.072q-.575.416-1.28.624a4.7 4.7 0 0 1-1.36.208m-10.976 0q-1.23 0-2.208-.56a4.1 4.1 0 0 1-1.52-1.536q-.544-.976-.544-2.224 0-1.168.544-2.16a4.25 4.25 0 0 1 1.488-1.584q.945-.608 2.16-.608 1.312 0 2.208.56a3.63 3.63 0 0 1 1.36 1.504q.465.928.464 2.064 0 .256-.016.448-.015.176-.032.256h-6.112q.064.464.256.816.305.576.816.88.528.288 1.168.288.752 0 1.264-.32.512-.336.8-.832l1.696.832a4.5 4.5 0 0 1-1.504 1.6q-.928.576-2.288.576m-2.128-5.328h4.064a1.4 1.4 0 0 0-.16-.56 1.9 1.9 0 0 0-.4-.528 1.9 1.9 0 0 0-.624-.384 2 2 0 0 0-.816-.16q-.608 0-1.12.32-.495.32-.784.88a3 3 0 0 0-.16.432M67.98 20.02V8.564h2.096V20.02Zm-5.44 3.712q-1.104 0-1.92-.352-.8-.336-1.312-.88t-.72-1.136l1.968-.8q.256.593.768.944.528.368 1.216.368.975 0 1.568-.608.592-.592.592-1.728v-.64h-.128q-.384.544-1.008.832-.623.288-1.424.288-.992 0-1.872-.512-.864-.512-1.408-1.456-.528-.945-.528-2.24 0-1.312.528-2.24.544-.945 1.408-1.456a3.66 3.66 0 0 1 1.872-.512q.8 0 1.424.288.624.272 1.008.832h.128v-.864h2.016v7.6q0 1.312-.512 2.272a3.5 3.5 0 0 1-1.456 1.472q-.928.528-2.208.528m.032-5.616q.56 0 1.04-.256a2 2 0 0 0 .784-.784q.304-.528.304-1.264 0-.768-.304-1.28a1.87 1.87 0 0 0-.784-.768 2.2 2.2 0 0 0-1.04-.256 2.3 2.3 0 0 0-1.056.256q-.495.256-.8.768-.288.512-.288 1.28 0 .752.288 1.28.305.51.8.768.496.255 1.056.256m-8.932 2.16q-1.28 0-2.272-.56a4.2 4.2 0 0 1-1.536-1.552q-.543-.992-.544-2.224 0-1.231.544-2.208a4.05 4.05 0 0 1 1.536-1.552q.993-.576 2.272-.576 1.28 0 2.256.576t1.52 1.552q.56.976.56 2.208t-.56 2.224a4.1 4.1 0 0 1-1.52 1.552q-.975.56-2.256.56m0-1.952q.608 0 1.104-.272.511-.288.816-.816.32-.545.32-1.296 0-.752-.32-1.28a2.14 2.14 0 0 0-.816-.816 2.13 2.13 0 0 0-1.088-.288q-.608 0-1.136.288a2.26 2.26 0 0 0-.832.816q-.304.528-.304 1.28 0 .75.304 1.296.32.528.832.816.53.272 1.12.272m-9.044 1.952q-1.28 0-2.272-.56a4.2 4.2 0 0 1-1.535-1.552q-.544-.992-.544-2.224 0-1.231.543-2.208a4.05 4.05 0 0 1 1.538-1.552q.99-.576 2.271-.576t2.256.576q.977.576 1.52 1.552.56.976.56 2.208t-.56 2.224a4.1 4.1 0 0 1-1.52 1.552q-.975.56-2.256.56m0-1.952q.61 0 1.104-.272.513-.288.816-.816.32-.545.32-1.296 0-.752-.32-1.28a2.14 2.14 0 0 0-.816-.816 2.13 2.13 0 0 0-1.088-.288q-.608 0-1.136.288a2.26 2.26 0 0 0-.832.816q-.303.528-.303 1.28 0 .75.303 1.296.32.528.832.816.53.272 1.12.272M34.44 20.276q-1.232 0-2.336-.448a6.3 6.3 0 0 1-1.936-1.248 5.9 5.9 0 0 1-1.312-1.888 6.1 6.1 0 0 1-.464-2.4q0-1.296.464-2.384a5.8 5.8 0 0 1 1.312-1.904 6.1 6.1 0 0 1 1.92-1.248 6.2 6.2 0 0 1 2.352-.448q1.376 0 2.48.48t1.888 1.328l-1.488 1.456a3.5 3.5 0 0 0-.8-.656 3.6 3.6 0 0 0-.944-.416 4.3 4.3 0 0 0-1.152-.144q-.784 0-1.488.288a3.72 3.72 0 0 0-2.064 2.032 4.1 4.1 0 0 0-.304 1.616q0 .896.304 1.616t.832 1.248q.544.512 1.248.8.704.272 1.504.272t1.424-.224 1.056-.608q.448-.384.704-.848.272-.48.352-.976h-3.6v-1.84h5.616q.048.16.08.48t.032.528q0 1.264-.432 2.288a5 5 0 0 1-1.184 1.76 5.1 5.1 0 0 1-1.792 1.104 6.5 6.5 0 0 1-2.272.384"/></svg>