<svg xmlns="http://www.w3.org/2000/svg" width="24" height="24" aria-hidden="true" class="JC8gmf UsaErf"><path fill="#4285f4" d="M15.78 4.575a.676.676 0 0 1-.662-.547c-.297-1.53-1.55-2.558-3.116-2.558s-2.823 1.028-3.12 2.558a.674.674 0 1 1-1.325-.256C7.974 1.622 9.801.12 12 .12s4.027 1.502 4.444 3.652a.675.675 0 0 1-.664.803"/><path fill="#fabb05" d="m22.46 9.06.051-.396a2.32 2.32 0 0 0-.555-1.82 2.3 2.3 0 0 0-1.73-.784H5.837a6.2 6.2 0 0 0 1.811 4.527 6.17 6.17 0 0 0 8.74.005c1.662-1.62 3.891-2.223 6.073-1.532"/><path fill="#4285f4" d="M3.773 6.06a2.3 2.3 0 0 0-1.729.784 2.32 2.32 0 0 0-.555 1.82l1.6 12.492a6.14 6.14 0 0 0 4.565-1.804 6.21 6.21 0 0 0-.006-8.766A6.2 6.2 0 0 1 5.837 6.06z"/><path fill="#34a853" d="M22.462 9.049c-2.038-.632-4.306-.23-6.073 1.543a6.21 6.21 0 0 0 .005 8.765 6.2 6.2 0 0 1 1.81 4.523h.332a2.306 2.306 0 0 0 2.284-2.015z"/><path fill="#e94235" d="M7.654 19.352a6.14 6.14 0 0 1-4.565 1.805l.09.707a2.306 2.306 0 0 0 2.286 2.016h12.74a6.2 6.2 0 0 0-1.81-4.523 6.17 6.17 0 0 0-8.741-.005"/></svg>