<svg xmlns="http://www.w3.org/2000/svg" xmlns:xlink="http://www.w3.org/1999/xlink" xml:space="preserve" width="245.67" height="245.67" style="shape-rendering:geometricPrecision;text-rendering:geometricPrecision;image-rendering:optimizeQuality;fill-rule:evenodd;clip-rule:evenodd" viewBox="0 0 2559 2559"><defs><linearGradient id="a" x1="87.185" x2="3006.14" y1="1945.67" y2="709.071" gradientUnits="userSpaceOnUse"><stop offset="0" style="stop-opacity:1;stop-color:#f37835"/><stop offset="1" style="stop-opacity:1;stop-color:#fcd526"/></linearGradient><linearGradient xlink:href="#a" id="d" x1="2189.39" x2="2231.06" y1="928.512" y2="1294.75" gradientUnits="userSpaceOnUse"/><linearGradient xlink:href="#a" id="c" x1="1277.35" x2="1163.45" y1="1555.33" y2="2527.85" gradientUnits="userSpaceOnUse"/><linearGradient id="b" x1="307.669" x2="2405.39" y1="1365.99" y2="477.303" gradientUnits="userSpaceOnUse"><stop offset="0" style="stop-opacity:1;stop-color:#bb3438"/><stop offset=".988" style="stop-opacity:1;stop-color:#f0523e"/><stop offset="1" style="stop-opacity:1;stop-color:#f0523e"/></linearGradient><linearGradient xlink:href="#b" id="e" x1="1964.14" x2="2554.42" y1="1172.41" y2="707.134" gradientUnits="userSpaceOnUse"/></defs><path d="M2094 973c0 473-384 857-858 857-473 0-858-384-858-857 0-474 385-858 858-858 474 0 858 384 858 858" style="fill:url(#b)"/><path d="m714 1805 798 639-70-359 350-368z" style="fill:url(#c)"/><path d="m57 1087 2445-101-230 906-1956 57z" style="fill:url(#a)"/><path d="M2332 1181c0-9 100-151 130-193l-413 17-106 99s389 87 389 77" style="fill:url(#d)"/><path d="m1946 913 521-41-83 243-486 7z" style="fill:url(#e)"/><path d="M2060 1082c43-2 71-33 69-74-2-30-25-50-61-48-42 2-71 33-69 74 2 30 25 50 61 48m1-27c-17 1-28-9-28-25-2-22 11-41 34-42 18-1 28 9 29 24 1 22-12 41-35 43m188-76 4-26-91 5-18 117 33-1 6-41 51-2 4-26-51 3 4-26zm113-6 4-26-91 5-17 117 33-1 6-41 51-2 4-26-52 3 4-26z" style="fill:#fefefe;fill-rule:nonzero"/><text x="1236" y="920" style="fill:#fdbe2d;font-weight:900;font-size:500px;font-family:&quot;Arial Black&quot;,Impact,sans-serif;paint-order:stroke;stroke:#fdbe2d;stroke-width:14px;stroke-linejoin:round;text-anchor:middle">[PC]%</text><text x="1280" y="1280" style="fill:#e63338;font-weight:900;text-transform:uppercase;font-size:423.488px;font-family:&quot;Arial Black&quot;,Impact,sans-serif;paint-order:stroke;stroke:#e63338;stroke-width:12px;stroke-linejoin:round;text-anchor:middle" transform="rotate(-1.997 11361.211 1280.492)">[SALENAME]</text></svg>