<svg xmlns:svg="http://www.w3.org/2000/svg" xmlns="http://www.w3.org/2000/svg" id="svg12" version="1.1" viewBox="0 0 60 60" cursor="pointer"><svg height="100%" width="100%" id="svg6" version="1.1" x="10" y="10" fill="none" fill-rule="evenodd"><path id="path4" fill="#fff" d="M20 0c11.3 0 20 8.3 20 19.4 0 11.1-8.7 19.4-20 19.4-2 0-4-.3-5.8-.8l-1 .1-4 1.8c-1 .4-2.2-.3-2.3-1.5V35c-.1-.4-.3-.9-.6-1.2A19 19 0 010 19.4C0 8.3 8.7 0 20 0zM8 25c-.6 1 .5 2 1.4 1.3l6.3-4.8c.4-.3 1-.3 1.4 0l4.7 3.5a3 3 0 004.3-.8l6-9.3c.5-.9-.6-1.9-1.5-1.2l-6.3 4.8c-.4.3-1 .3-1.4 0L18.2 15a3 3 0 00-4.3.8l-6 9.3z"/></svg></svg>