<svg xmlns:svg="http://www.w3.org/2000/svg" xmlns="http://www.w3.org/2000/svg" cursor="pointer" viewBox="0 0 60 60"><svg height="60" width="60"><g fill-rule="evenodd" fill="none"><circle r="30" cy="30" cx="30" fill="#fa3c4c"/><svg y="10" x="10"><path d="M20 0c11.3 0 20 8.3 20 19.4 0 11.1-8.7 19.4-20 19.4-2 0-4-.3-5.8-.8l-1 .1-4 1.8c-1 .4-2.2-.3-2.3-1.5V35c-.1-.4-.3-.9-.6-1.2A19 19 0 010 19.4C0 8.3 8.7 0 20 0zM8 25c-.6 1 .5 2 1.4 1.3l6.3-4.8c.4-.3 1-.3 1.4 0l4.7 3.5a3 3 0 004.3-.8l6-9.3c.5-.9-.6-1.9-1.5-1.2l-6.3 4.8c-.4.3-1 .3-1.4 0L18.2 15a3 3 0 00-4.3.8l-6 9.3z" fill="#FFF"/></svg></g></svg></svg>