<svg xmlns="http://www.w3.org/2000/svg" viewBox="0 0 512 512" style="enable-background:new 0 0 512 512" xml:space="preserve"><path style="fill:#fff" d="M359.03 392.55c20.85 12.1 44.74 25.97 61.86 45.12-93.54 84.9-236.24 84.9-329.77 0 17.11-19.15 41-33.01 61.86-45.12 25.6-14.87 47.72-27.73 47.72-43.83.4-17.4-7.28-34-20.8-44.96-12.2-2.02-18.6-24.95-18.6-37.54a17.5 17.5 0 0 1 5.22-14.77c-8.85-28.74-8.7-68.63 11.41-96.84 15.73-22.08 41.65-33.8 74.98-33.92a71.2 71.2 0 0 1 68.63 14.46c14.99 13.49 37.76 46.4 23.84 115.98 2.88 2.03 5.65 6.24 5.65 15.1 0 12.58-6.4 35.56-18.66 37.54a55.82 55.82 0 0 0-21.07 44.95c0 16.1 22.13 28.96 47.73 43.83z"/><path style="fill:#f54b55" d="M256 10.73c135.48.01 245.31 109.84 245.3 245.32a245.3 245.3 0 0 1-80.41 181.62c-17.12-19.15-41.01-33.01-61.86-45.12-25.6-14.87-47.73-27.73-47.73-43.83a55.81 55.81 0 0 1 21.07-44.95c12.26-1.98 18.66-24.96 18.66-37.55 0-8.85-2.77-13.06-5.65-15.09 13.92-69.59-8.85-102.5-23.84-115.98a71.2 71.2 0 0 0-68.63-14.45c-33.33.1-59.25 11.83-74.98 33.91-20.1 28.21-20.26 68.1-11.41 96.84a17.5 17.5 0 0 0-5.23 14.77c0 12.59 6.4 35.52 18.62 37.55a56.24 56.24 0 0 1 20.8 44.95c0 16.1-22.14 28.96-47.73 43.83-20.86 12.1-44.75 25.97-61.86 45.12C-9.2 346.6-16.68 191.46 74.39 91.15A245.28 245.28 0 0 1 256 10.73z"/><g style="opacity:.08;enable-background:new"><path style="fill:#303442" d="M256 448.01c-125.16 0-230.24-94.22-243.83-218.63a248.77 248.77 0 0 0-1.47 26.66c0 135.47 109.83 245.3 245.3 245.3s245.3-109.82 245.3-245.3a249 249 0 0 0-1.46-26.67C486.24 353.8 381.16 448.02 256 448.01z"/></g><path style="fill:#303442" d="M420.9 448.33c-2.94 0-5.86-1.2-7.96-3.55-15.98-17.88-38.97-31.22-59.24-42.99-28.5-16.56-53.06-30.84-53.06-53.07a66.75 66.75 0 0 1 25.1-53.3 10.67 10.67 0 0 1 4.94-2.19c3.05-.49 9.7-14.33 9.7-27 0-5.05-1.18-6.4-1.2-6.42a10.57 10.57 0 0 1-4.26-10.77c12.9-64.51-7.32-94.08-20.51-105.97a60.81 60.81 0 0 0-58.27-12.21c-1.04.33-2.12.5-3.2.5-29.73.1-52.67 10.27-66.33 29.44-19 26.65-17.2 63.8-9.9 87.51 1.18 3.85.1 8.03-2.79 10.82a6.87 6.87 0 0 0-2.04 5.77c.05.44.08.88.08 1.32 0 12.6 6.64 26.48 9.69 27.02 1.78.31 3.57 1.1 4.97 2.24a67.36 67.36 0 0 1 24.74 53.47c0 22-24.55 36.27-52.98 52.79-20.34 11.8-43.33 25.15-59.32 43.03a10.66 10.66 0 1 1-15.9-14.22c18.25-20.4 42.8-34.66 64.45-47.23 19.9-11.57 42.42-24.65 42.42-34.6a46.07 46.07 0 0 0-15.19-35.26c-17.75-5.9-24.02-33.47-24.22-46.61-.62-6.23.9-12.48 4.16-17.72-7.33-28.42-7.59-69.77 14.45-100.72 17.56-24.63 45.9-37.88 82.03-38.37a82.3 82.3 0 0 1 77.33 17.1c16.25 14.64 40.99 49.46 28.25 120.71 2.73 4 4.85 9.84 4.85 18.36 0 12.92-6.21 41.4-24.35 47.28a45.48 45.48 0 0 0-15.38 34.98c0 10.2 22.52 23.29 42.4 34.84 21.7 12.6 46.23 26.84 64.48 47.24a10.67 10.67 0 0 1-7.95 17.78z"/><path style="fill:#303442" d="M255.74 512a254.8 254.8 0 0 1-171.8-66.44c-104.51-94.87-112.37-257.09-17.5-361.6C112.4 33.31 175.34 3.61 243.64.3c68.32-3.32 133.8 20.18 184.42 66.14 104.53 94.87 112.38 257.09 17.5 361.6A256.46 256.46 0 0 1 256 512h-.26zm.53-490.67c-3.86 0-7.73.1-11.61.28A233.14 233.14 0 0 0 82.24 98.3C-4.72 194.1 2.47 342.8 98.3 429.77a233.55 233.55 0 0 0 157.46 60.9h.24a235.1 235.1 0 0 0 173.77-76.94c86.97-95.82 79.77-244.52-16.04-331.49-43.53-39.5-99.06-60.9-157.45-60.9z"/></svg>