<svg version="1.1" id="Capa_1" xmlns="http://www.w3.org/2000/svg" x="0" y="0" viewBox="0 0 512.001 512.001" xml:space="preserve"><path d="M481.53 347.033l30.015-191.649c3.121-19.448-10.112-37.747-29.561-40.877L76.973 49.501c-19.448-3.121-37.746 10.112-40.867 29.56l-14.392 89.627v177.23l459.816 1.115z" fill="#146aa8"/><path d="M481.985 114.507L366.953 96.049C289.694 214.264 164.799 296.142 69.019 346.034l412.511.999 30.015-191.649c3.121-19.449-10.112-37.747-29.56-40.877z" fill="#126099"/><path d="M35.669 159.771h410.192c19.698 0 35.669 15.971 35.669 35.669v231.848c0 19.698-15.971 35.669-35.669 35.669H35.669C15.971 462.956 0 446.986 0 427.288V195.44c0-19.698 15.971-35.669 35.669-35.669z" fill="#4398d1"/><path d="M445.861 159.771h-7.134c-84.179 149.444-241.469 251.956-337.49 303.185h344.624c19.698 0 35.669-15.971 35.669-35.669V195.44c0-19.698-15.971-35.669-35.669-35.669z" fill="#3e8cc7"/><path fill="#fdb62f" d="M44.586 204.357h89.172v71.338H44.586z"/><path d="M44.586 231.109h26.752v17.834H44.586zm62.421 0h26.752v17.834h-26.752z" fill="#fd7b2f"/><circle cx="392.358" cy="373.784" r="44.586" fill="#fdb62f"/><circle cx="338.854" cy="373.784" r="44.586" fill="#de4c3c"/><path d="M35.669 338.115h53.503v17.834H35.669zm89.172 0h53.503v17.834h-53.503zm89.172 0h53.503v17.834h-53.503zM35.669 391.619h231.848v17.834H35.669zm276.434-187.262h17.834v35.669h-17.834zm35.669 0h17.834v35.669h-17.834zm35.668 0h17.834v35.669H383.44zm35.669 0h17.834v35.669h-17.834z" fill="#87ced9"/></svg>