<svg id="Layer_1" height="512" viewBox="0 0 256 256" width="512" xmlns="http://www.w3.org/2000/svg"><path d="M121.059 188.448H24.304v-27.844c0-11.451 9.283-20.733 20.733-20.733h55.289c11.451 0 20.733 9.283 20.733 20.733z" fill="#4671c6"/><path d="M72.664 164.159c12.302 0 22.275-9.973 22.275-22.275v-2.015H50.39v2.015c0 12.303 9.972 22.275 22.274 22.275z" fill="#e0ebfc"/><path d="M54.675 131.428v8.445c0 9.935 8.054 17.989 17.989 17.989s17.989-8.054 17.989-17.989v-8.426c-11.077 5.762-24.599 5.915-35.978-.019z" fill="#f9cfcf"/><path d="M121.06 190.448H24.304a2 2 0 0 1-2-2v-27.844c0-12.535 10.198-22.733 22.733-22.733h7.638v-6.443a1.999 1.999 0 0 1 2.925-1.773c5.311 2.769 11.058 4.173 17.082 4.173 6.013 0 11.749-1.398 17.049-4.156a2 2 0 0 1 2.923 1.774v6.424h7.673c12.535 0 22.733 10.198 22.733 22.733v27.844a2 2 0 0 1-2 2.001zm-94.756-4h92.756v-25.844c0-10.33-8.403-18.733-18.733-18.733h-9.673a2 2 0 0 1-2-2v-5.276a41.179 41.179 0 0 1-15.972 3.233 41.183 41.183 0 0 1-16.007-3.248v5.291a2 2 0 0 1-2 2h-9.638c-10.33 0-18.733 8.403-18.733 18.733z" fill="#3762cc"/><path d="M72.285 124.875c-24.902 0-45.089-20.187-45.089-45.089V56.692h90.177v23.094c.001 24.902-20.186 45.089-45.088 45.089z" fill="#4671c6"/><path d="M72.285 126.875c-25.965 0-47.089-21.124-47.089-47.089V56.692a2 2 0 0 1 2-2h90.178a2 2 0 0 1 2 2v23.094c0 25.965-21.124 47.089-47.089 47.089zM29.196 58.692v21.094c0 23.759 19.329 43.089 43.089 43.089s43.089-19.33 43.089-43.089V58.692z" fill="#3762cc"/><path d="M111.436 82.825v-3.629c0-21.21-17.351-38.405-38.754-38.405S33.928 57.985 33.928 79.196v3.629C27.199 82.689 21.86 88.05 21.86 94.53c0 6.919 6.041 12.393 13.092 11.647 3.999 16.991 19.369 29.65 37.73 29.65 18.363 0 33.731-12.66 37.73-29.65 7.041.745 13.092-4.718 13.092-11.647 0-6.483-5.343-11.841-12.068-11.705z" fill="#f9cfcf"/><path d="M72.695 119.373c-.001 0-.001 0 0 0-2.901 0-5.611-1.056-7.437-2.895-1.4-1.411-2.172-3.198-2.172-5.031a2 2 0 0 1 4 0c0 .782.35 1.547 1.012 2.214 1.063 1.072 2.781 1.712 4.596 1.712h.001c1.818 0 3.48-.624 4.561-1.712.662-.667 1.012-1.433 1.012-2.214a2 2 0 0 1 4 0c0 1.832-.771 3.619-2.172 5.031-1.826 1.839-4.524 2.895-7.401 2.895zm20.106-16.028a5.442 5.442 0 0 1-5.442-5.442v-5.805a5.442 5.442 0 0 1 10.884 0v5.805a5.441 5.441 0 0 1-5.442 5.442zm-40.249 0a5.443 5.443 0 0 1-5.443-5.442v-5.805a5.442 5.442 0 0 1 10.884 0v5.805a5.44 5.44 0 0 1-5.441 5.442z" fill="#3762cc"/><path d="M72.682 137.828c-18.478 0-34.392-12.084-39.265-29.587a13.903 13.903 0 0 1-9.019-3.548 13.697 13.697 0 0 1-4.539-10.163c0-3.697 1.461-7.165 4.112-9.764a13.712 13.712 0 0 1 7.956-3.836v-1.733c0-22.279 18.282-40.405 40.754-40.405s40.754 18.125 40.754 40.405v1.733a13.714 13.714 0 0 1 7.956 3.837c2.651 2.599 4.112 6.066 4.112 9.763 0 3.863-1.654 7.566-4.538 10.162a13.897 13.897 0 0 1-9.02 3.549c-4.871 17.503-20.785 29.587-39.263 29.587zm-37.729-33.651a2 2 0 0 1 1.945 1.542c3.896 16.55 18.61 28.109 35.783 28.109 17.174 0 31.888-11.559 35.783-28.108a1.993 1.993 0 0 1 2.157-1.531 9.927 9.927 0 0 0 7.668-2.47 9.692 9.692 0 0 0 3.214-7.188 9.6 9.6 0 0 0-2.912-6.906c-1.897-1.86-4.422-2.845-7.116-2.799a2 2 0 0 1-2.04-1.999v-3.628c0-20.074-16.487-36.405-36.754-36.405S35.928 59.123 35.928 79.197v3.628c0 .538-.217 1.052-.601 1.428s-.951.59-1.439.571c-2.736-.059-5.22.94-7.116 2.798a9.601 9.601 0 0 0-2.912 6.907 9.692 9.692 0 0 0 3.215 7.189c2.104 1.893 4.831 2.771 7.667 2.47.071-.007.141-.011.211-.011z" fill="#3762cc"/><path d="M27.196 63.194h90.177v-13.69c0-17.382-14.091-31.473-31.473-31.473H58.669c-17.382 0-31.473 14.091-31.473 31.473zm45.089 0H27.196l3.703 8.102A11.473 11.473 0 0 0 41.334 78h61.902c4.491 0 8.568-2.62 10.435-6.704l3.703-8.102z" fill="#a4c9ff"/><path d="M117.374 65.194H27.196a2 2 0 0 1-2-2v-13.69c0-18.457 15.016-33.473 33.473-33.473H85.9c18.457 0 33.474 15.016 33.474 33.473v13.69a2 2 0 0 1-2 2zm-88.178-4h86.178v-11.69c0-16.251-13.222-29.473-29.474-29.473H58.669c-16.251 0-29.473 13.221-29.473 29.473z" fill="#3762cc"/><path d="M103.235 80H41.334a13.505 13.505 0 0 1-12.254-7.873l-3.703-8.102a2 2 0 0 1 1.82-2.832h90.178a2.001 2.001 0 0 1 1.82 2.832l-3.703 8.102A13.512 13.512 0 0 1 103.235 80zM30.31 65.194l2.409 5.271A9.493 9.493 0 0 0 41.334 76h61.901a9.496 9.496 0 0 0 8.616-5.536l2.409-5.271H30.31z" fill="#3762cc"/><path d="M119.132 237.969H25.438a3.677 3.677 0 0 1-3.677-3.677v-82.526a3.677 3.677 0 0 1 3.677-3.677h93.694a3.677 3.677 0 0 1 3.677 3.677v82.526a3.677 3.677 0 0 1-3.677 3.677z" fill="#a4c9ff"/><path d="M84.273 182.519l-3.246-2.871a1.839 1.839 0 0 0-2.436 0l-5.087 4.498a1.839 1.839 0 0 1-2.436 0l-5.085-4.498a1.839 1.839 0 0 0-2.436 0l-3.252 2.874c-1.187 1.049-3.056.206-3.056-1.377V148.09h30.09v33.053c.001 1.583-1.869 2.426-3.056 1.376zm-35.112 48.564H30.615a1.226 1.226 0 0 1-1.226-1.226v-9.048c0-.677.549-1.226 1.226-1.226h18.546c.677 0 1.226.549 1.226 1.226v9.048a1.226 1.226 0 0 1-1.226 1.226zm64.794 0h-11.447a1.226 1.226 0 0 1-1.226-1.226v-9.048c0-.677.549-1.226 1.226-1.226h11.447c.677 0 1.226.549 1.226 1.226v9.048c0 .678-.549 1.226-1.226 1.226z" fill="#e0ebfc"/><path d="M119.132 239.969H25.438a5.683 5.683 0 0 1-5.677-5.677v-82.526a5.684 5.684 0 0 1 5.677-5.677h93.694a5.683 5.683 0 0 1 5.677 5.677v82.526a5.684 5.684 0 0 1-5.677 5.677zm-93.694-89.88c-.925 0-1.677.752-1.677 1.677v82.526c0 .925.752 1.677 1.677 1.677h93.694c.925 0 1.677-.752 1.677-1.677v-82.526c0-.925-.752-1.677-1.677-1.677z" fill="#3762cc"/><path d="M49.161 233.083H30.614a3.23 3.23 0 0 1-3.226-3.226v-9.048a3.23 3.23 0 0 1 3.226-3.226h18.547a3.23 3.23 0 0 1 3.226 3.226v9.048a3.23 3.23 0 0 1-3.226 3.226zm-17.772-4h16.998v-7.5H31.389zm82.566 4h-11.447a3.23 3.23 0 0 1-3.226-3.226v-9.048a3.23 3.23 0 0 1 3.226-3.226h11.447a3.23 3.23 0 0 1 3.226 3.226v9.048a3.23 3.23 0 0 1-3.226 3.226zm-10.673-4h9.898v-7.5h-9.898zm-30.996-42.478a3.83 3.83 0 0 1-2.543-.961l-4.978-4.403-3.146 2.78a3.795 3.795 0 0 1-4.119.623 3.794 3.794 0 0 1-2.261-3.499V148.09a2 2 0 0 1 2-2h30.09a2 2 0 0 1 2 2v33.053c0 1.53-.866 2.871-2.262 3.5a3.797 3.797 0 0 1-4.12-.625l-3.139-2.777-4.979 4.403a3.83 3.83 0 0 1-2.543.961zm-7.52-9.417c.909 0 1.818.321 2.543.962l4.979 4.404 4.979-4.404a3.844 3.844 0 0 1 5.086 0l2.978 2.634v-30.695H59.24v30.696l2.983-2.637a3.832 3.832 0 0 1 2.543-.96z" fill="#3762cc"/><path d="M31.512 211.184H14a6 6 0 0 1-6-6V181.47a6 6 0 0 1 6-6h17.512a4.464 4.464 0 0 1 4.464 4.464v26.785a4.465 4.465 0 0 1-4.464 4.465zm81.773-35.714h16.512a7 7 0 0 1 7 7v21.714a7 7 0 0 1-7 7h-16.512a4.464 4.464 0 0 1-4.464-4.464v-26.785a4.464 4.464 0 0 1 4.464-4.465z" fill="#f9cfcf"/><path d="M31.512 213.184H14c-4.411 0-8-3.589-8-8V181.47c0-4.411 3.589-8 8-8h17.512c3.564 0 6.464 2.9 6.464 6.464v26.785c0 3.565-2.9 6.465-6.464 6.465zM14 177.47c-2.206 0-4 1.794-4 4v23.714c0 2.206 1.794 4 4 4h17.512a2.467 2.467 0 0 0 2.464-2.464v-26.785a2.466 2.466 0 0 0-2.464-2.464H14zm115.797 35.714h-16.512a6.472 6.472 0 0 1-6.464-6.464v-26.785a6.471 6.471 0 0 1 6.464-6.464h16.512c4.963 0 9 4.038 9 9v21.714c0 4.961-4.037 8.999-9 8.999zm-16.512-35.714a2.467 2.467 0 0 0-2.464 2.464v26.785a2.466 2.466 0 0 0 2.464 2.464h16.512c2.757 0 5-2.243 5-5V182.47c0-2.757-2.243-5-5-5z" fill="#3762cc"/><path d="M179.409 172.072l-55.753-55.753a2.892 2.892 0 0 1 0-4.091l28.299-28.299a2.892 2.892 0 0 1 4.091 0l55.753 55.753a2.892 2.892 0 0 1 0 4.091L183.5 172.072a2.894 2.894 0 0 1-4.091 0z" fill="#6bdddd"/><path d="M180.739 169.011a3.427 3.427 0 0 1-2.438-1.009l-50.575-50.576a3.453 3.453 0 0 1-.001-4.874h.001l24.553-24.553c1.303-1.303 3.572-1.302 4.875 0l50.574 50.575c.651.65 1.01 1.516 1.01 2.437s-.358 1.787-1.01 2.438l-24.553 24.552a3.42 3.42 0 0 1-2.436 1.01zm-49.793-54.022l49.792 49.792 23.771-23.77-49.793-49.792z" fill="#e0ebfc"/><circle cx="167.728" cy="128" fill="#e0ebfc" r="14.401"/><path d="M175.725 121.029l-.891.891c.528.649.912 1.274 1.151 1.877.239.602.332 1.245.277 1.926a4.974 4.974 0 0 1-.293 1.44c-.162.431-.367.771-.615 1.019a1.383 1.383 0 0 1-1.015.413c-.402 0-.745-.143-1.031-.429-.539-.539-.597-1.18-.173-1.922.506-.869.525-1.762.058-2.681l-3.432 3.432c.495.869.867 1.582 1.118 2.141a4.79 4.79 0 0 1 .417 1.753 4.382 4.382 0 0 1-.297 1.872 4.826 4.826 0 0 1-1.105 1.658c-.627.627-1.361 1.067-2.203 1.32s-1.721.267-2.64.041c-.918-.226-1.804-.698-2.656-1.419l-2.054 2.054c-.324.324-.593.529-.804.615-.212.085-.425.02-.639-.194-.198-.198-.276-.397-.235-.598s.188-.428.441-.681l2.227-2.227c-.572-.715-.983-1.429-1.233-2.141s-.364-1.401-.342-2.066.142-1.261.359-1.786.504-.966.862-1.324c.264-.264.605-.399 1.023-.404s.781.145 1.089.454c.248.248.399.514.454.8s.011.567-.132.841c-.302.6-.518 1.074-.648 1.423a2.835 2.835 0 0 0-.157 1.155c.025.421.169.867.433 1.34l3.836-3.836c-.533-.94-.922-1.783-1.167-2.528s-.29-1.503-.136-2.272c.154-.77.594-1.518 1.32-2.244.946-.946 2.022-1.42 3.229-1.423s2.429.516 3.667 1.555l.874-.874c.462-.462.866-.52 1.213-.173.35.35.301.752-.15 1.202zm-6.707 4.612l3.159-3.159c-.599-.324-1.141-.503-1.625-.536s-.954.179-1.411.635c-.434.434-.642.884-.623 1.349.02.464.187 1.034.5 1.711zm-1.402 3.497l-3.613 3.613c.665.445 1.317.652 1.955.619s1.18-.272 1.625-.718c.478-.478.701-.995.668-1.551-.033-.555-.244-1.209-.635-1.963z" fill="#6bdddd"/><path d="M181.455 174.919a4.861 4.861 0 0 1-3.46-1.433l-55.753-55.753a4.897 4.897 0 0 1 0-6.919l28.299-28.299a4.898 4.898 0 0 1 6.92 0l55.753 55.753a4.897 4.897 0 0 1 0 6.919l-28.3 28.299a4.856 4.856 0 0 1-3.459 1.433zm-27.454-89.838a.891.891 0 0 0-.632.261l-28.299 28.299a.894.894 0 0 0 0 1.263l55.753 55.753a.887.887 0 0 0 .632.261.887.887 0 0 0 .63-.261l28.301-28.3a.894.894 0 0 0 0-1.263l-55.753-55.753a.896.896 0 0 0-.632-.26z" fill="#3762cc"/><path d="M248 97.504l-51.866-5.645a19.196 19.196 0 0 0-9.153 1.239l-15.587 6.179 14.39 14.39 1.946 1.947 1.093 1.093 11.821 11.821h-28.001c-5.227 0-9.725 4.017-9.971 9.238-.263 5.575 4.18 10.177 9.696 10.177h36.536c3.806 0 7.57-.784 11.06-2.303l16.294-7.091H248z" fill="#f9cfcf"/><path d="M208.906 149.941H172.37a11.61 11.61 0 0 1-8.472-3.626 11.626 11.626 0 0 1-3.224-8.644c.295-6.25 5.552-11.145 11.969-11.145h23.173l-25.837-25.836a1.999 1.999 0 0 1 .677-3.273l15.588-6.179a21.285 21.285 0 0 1 10.107-1.367l51.865 5.645a1.999 1.999 0 0 1 1.783 1.988v41.043a2 2 0 0 1-2 2h-11.324l-15.912 6.925a29.527 29.527 0 0 1-11.857 2.469zm-36.262-19.415c-4.206 0-7.782 3.29-7.973 7.333a7.653 7.653 0 0 0 2.121 5.695 7.642 7.642 0 0 0 5.578 2.388h36.536c3.553 0 7.005-.719 10.262-2.137l16.294-7.091c.252-.109.523-.166.798-.166H246v-37.25l-50.082-5.451a17.264 17.264 0 0 0-8.199 1.109l-12.759 5.057 27.099 27.099a2 2 0 0 1-1.414 3.414z" fill="#3762cc"/><path d="M205.331 170.075a4 4 0 0 0-4 4v13.252c0 1.103-.897 2-2 2h-33.328v-6.981c0-.97-1.11-1.522-1.884-.936l-14.498 10.981c-.62.47-.62 1.403 0 1.872l14.498 10.981c.774.586 1.884.034 1.884-.936v-6.981h33.328c5.514 0 10-4.486 10-10v-13.252a4 4 0 0 0-4-4z" fill="#f9a7a7"/></svg>