<svg id="Layer_1" enable-background="new 0 0 256 256" height="512" viewBox="0 0 256 256" width="512" xmlns="http://www.w3.org/2000/svg"><g><g><path d="m121.059 188.448h-96.755v-27.844c0-11.451 9.283-20.733 20.733-20.733h55.289c11.451 0 20.733 9.283 20.733 20.733z" fill="#4671c6"/></g><g><path d="m72.664 164.159c12.302 0 22.275-9.973 22.275-22.275v-.003-2.012h-44.549v2.012.003c0 12.303 9.972 22.275 22.274 22.275z" fill="#e0ebfc"/></g><g><path d="m54.675 131.428v8.443.002c0 9.935 8.054 17.989 17.989 17.989 9.935 0 17.989-8.054 17.989-17.989v-.002-8.424c-11.077 5.762-24.599 5.915-35.978-.019z" fill="#f9cfcf"/></g><g><path d="m121.06 190.448h-96.756c-1.104 0-2-.896-2-2v-27.844c0-12.535 10.198-22.733 22.733-22.733h7.638v-6.443c0-.699.365-1.348.963-1.71.6-.363 1.344-.386 1.962-.063 5.311 2.769 11.058 4.173 17.082 4.173 6.013 0 11.749-1.398 17.049-4.156.621-.322 1.363-.298 1.961.065.597.362.962 1.011.962 1.709v6.424h7.673c12.535 0 22.733 10.198 22.733 22.733v27.844c0 1.105-.896 2.001-2 2.001zm-94.756-4h92.756v-25.844c0-10.33-8.403-18.733-18.733-18.733h-9.673c-1.104 0-2-.896-2-2v-5.276c-5.025 2.122-10.487 3.233-15.972 3.233-5.497 0-10.97-1.116-16.007-3.248v5.291c0 1.104-.896 2-2 2h-9.638c-10.33 0-18.733 8.403-18.733 18.733z" fill="#3762cc"/></g><g><path d="m72.285 124.875c-24.902 0-45.089-20.187-45.089-45.089v-23.094h90.177v23.094c.001 24.902-20.186 45.089-45.088 45.089z" fill="#4671c6"/></g><g><path d="m72.285 126.875c-25.965 0-47.089-21.124-47.089-47.089v-23.094c0-1.104.896-2 2-2h90.178c1.104 0 2 .896 2 2v23.094c0 25.965-21.124 47.089-47.089 47.089zm-43.089-68.183v21.094c0 23.759 19.329 43.089 43.089 43.089s43.089-19.33 43.089-43.089v-21.094z" fill="#3762cc"/></g><g><path d="m111.436 82.825v-3.629c0-21.21-17.351-38.405-38.754-38.405-21.403 0-38.754 17.194-38.754 38.405v3.629c-6.729-.136-12.068 5.225-12.068 11.705 0 6.919 6.041 12.393 13.092 11.647 3.999 16.991 19.369 29.65 37.73 29.65 18.363 0 33.731-12.66 37.73-29.65 7.041.745 13.092-4.718 13.092-11.647 0-6.483-5.343-11.841-12.068-11.705z" fill="#f9cfcf"/></g><g><path d="m72.695 119.373c-.001 0-.001 0 0 0-2.901 0-5.611-1.056-7.437-2.895-1.4-1.411-2.172-3.198-2.172-5.031 0-1.104.896-2 2-2s2 .896 2 2c0 .782.35 1.547 1.012 2.214 1.063 1.072 2.781 1.712 4.596 1.712h.001c1.818 0 3.48-.624 4.561-1.712.662-.667 1.012-1.433 1.012-2.214 0-1.104.896-2 2-2s2 .896 2 2c0 1.832-.771 3.619-2.172 5.031-1.826 1.839-4.524 2.895-7.401 2.895z" fill="#3762cc"/></g><g><path d="m92.801 103.345c-3.006 0-5.442-2.437-5.442-5.442v-5.805c0-3.006 2.437-5.442 5.442-5.442 3.006 0 5.442 2.437 5.442 5.442v5.805c.001 3.005-2.436 5.442-5.442 5.442z" fill="#3762cc"/></g><g><path d="m52.552 103.345c-3.006 0-5.443-2.437-5.443-5.442v-5.805c0-3.006 2.437-5.442 5.442-5.442 3.006 0 5.442 2.437 5.442 5.442v5.805c.002 3.005-2.435 5.442-5.441 5.442z" fill="#3762cc"/></g><g><path d="m72.682 137.828c-18.478 0-34.392-12.084-39.265-29.587-3.323-.065-6.536-1.315-9.019-3.548-2.885-2.596-4.539-6.3-4.539-10.163 0-3.697 1.461-7.165 4.112-9.764 2.184-2.14 4.955-3.465 7.956-3.836v-1.733c0-22.279 18.282-40.405 40.754-40.405s40.754 18.125 40.754 40.405v1.733c3.001.371 5.772 1.697 7.956 3.837 2.651 2.599 4.112 6.066 4.112 9.763 0 3.863-1.654 7.566-4.538 10.162-2.482 2.234-5.696 3.484-9.02 3.549-4.871 17.503-20.785 29.587-39.263 29.587zm-37.729-33.651c.917 0 1.73.63 1.945 1.542 3.896 16.55 18.61 28.109 35.783 28.109 17.174 0 31.888-11.559 35.783-28.108.23-.981 1.155-1.644 2.157-1.531 2.796.294 5.593-.604 7.668-2.47 2.042-1.838 3.214-4.458 3.214-7.188 0-2.613-1.034-5.066-2.912-6.906-1.897-1.86-4.422-2.845-7.116-2.799-.514.015-1.056-.194-1.439-.571-.384-.376-.601-.891-.601-1.428v-3.628c0-20.074-16.487-36.405-36.754-36.405s-36.753 16.329-36.753 36.403v3.628c0 .538-.217 1.052-.601 1.428s-.951.59-1.439.571c-2.736-.059-5.22.94-7.116 2.798-1.878 1.84-2.912 4.293-2.912 6.907 0 2.73 1.172 5.351 3.215 7.189 2.104 1.893 4.831 2.771 7.667 2.47.071-.007.141-.011.211-.011z" fill="#3762cc"/></g><g><path d="m27.196 63.194h90.177v-13.69c0-17.382-14.091-31.473-31.473-31.473h-27.231c-17.382 0-31.473 14.091-31.473 31.473z" fill="#a4c9ff"/></g><g><path d="m72.285 63.194h-45.089l3.703 8.102c1.867 4.084 5.944 6.704 10.435 6.704h30.951 30.951c4.491 0 8.568-2.62 10.435-6.704l3.703-8.102z" fill="#a4c9ff"/></g><g><path d="m117.374 65.194h-90.178c-1.104 0-2-.896-2-2v-13.69c0-18.457 15.016-33.473 33.473-33.473h27.231c18.457 0 33.474 15.016 33.474 33.473v13.69c0 1.105-.895 2-2 2zm-88.178-4h86.178v-11.69c0-16.251-13.222-29.473-29.474-29.473h-27.231c-16.251 0-29.473 13.221-29.473 29.473z" fill="#3762cc"/></g><g><path d="m103.235 80h-61.901c-5.259 0-10.068-3.09-12.254-7.873l-3.703-8.102c-.282-.619-.231-1.34.137-1.913s1.002-.919 1.683-.919h90.178c.681 0 1.314.346 1.683.919s.419 1.293.137 1.913l-3.703 8.102c-2.188 4.783-6.999 7.873-12.257 7.873zm-72.925-14.806 2.409 5.271c1.536 3.363 4.918 5.535 8.615 5.535h61.901c3.697 0 7.079-2.173 8.616-5.536l2.409-5.271h-83.95z" fill="#3762cc"/></g><g><path d="m119.132 237.969h-93.694c-2.031 0-3.677-1.646-3.677-3.677v-82.526c0-2.031 1.646-3.677 3.677-3.677h93.694c2.031 0 3.677 1.646 3.677 3.677v82.526c0 2.031-1.646 3.677-3.677 3.677z" fill="#a4c9ff"/></g><g><path d="m84.273 182.519-3.246-2.871c-.695-.615-1.74-.615-2.436 0l-5.087 4.498c-.696.615-1.74.615-2.436 0l-5.085-4.498c-.695-.615-1.74-.615-2.436 0l-3.252 2.874c-1.187 1.049-3.056.206-3.056-1.377v-33.055h30.09v33.053c.001 1.583-1.869 2.426-3.056 1.376z" fill="#e0ebfc"/></g><g><path d="m49.161 231.083h-18.546c-.677 0-1.226-.549-1.226-1.226v-9.048c0-.677.549-1.226 1.226-1.226h18.546c.677 0 1.226.549 1.226 1.226v9.048c-.001.678-.549 1.226-1.226 1.226z" fill="#e0ebfc"/></g><g><path d="m113.955 231.083h-11.447c-.677 0-1.226-.549-1.226-1.226v-9.048c0-.677.549-1.226 1.226-1.226h11.447c.677 0 1.226.549 1.226 1.226v9.048c0 .678-.549 1.226-1.226 1.226z" fill="#e0ebfc"/></g><g><path d="m119.132 239.969h-93.694c-3.13 0-5.677-2.546-5.677-5.677v-82.526c0-3.13 2.547-5.677 5.677-5.677h93.694c3.13 0 5.677 2.546 5.677 5.677v82.526c0 3.13-2.547 5.677-5.677 5.677zm-93.694-89.88c-.925 0-1.677.752-1.677 1.677v82.526c0 .925.752 1.677 1.677 1.677h93.694c.925 0 1.677-.752 1.677-1.677v-82.526c0-.925-.752-1.677-1.677-1.677z" fill="#3762cc"/></g><g><path d="m49.161 233.083h-18.547c-1.778 0-3.226-1.447-3.226-3.226v-9.048c0-1.779 1.447-3.226 3.226-3.226h18.547c1.778 0 3.226 1.447 3.226 3.226v9.048c0 1.779-1.448 3.226-3.226 3.226zm-17.772-4h16.998v-7.5h-16.998z" fill="#3762cc"/></g><g><path d="m113.955 233.083h-11.447c-1.778 0-3.226-1.447-3.226-3.226v-9.048c0-1.779 1.447-3.226 3.226-3.226h11.447c1.778 0 3.226 1.447 3.226 3.226v9.048c0 1.779-1.448 3.226-3.226 3.226zm-10.673-4h9.898v-7.5h-9.898z" fill="#3762cc"/></g><g><path d="m72.286 186.605c-.909 0-1.818-.32-2.543-.961l-4.978-4.403-3.146 2.78c-1.146 1.014-2.727 1.251-4.119.623-1.395-.628-2.261-1.969-2.261-3.499v-33.055c0-1.104.896-2 2-2h30.09c1.104 0 2 .896 2 2v33.053c0 1.53-.866 2.871-2.262 3.5-1.394.627-2.974.39-4.12-.625l-3.139-2.777-4.979 4.403c-.725.641-1.634.961-2.543.961zm-7.52-9.417c.909 0 1.818.321 2.543.962l4.979 4.404 4.979-4.404c1.449-1.282 3.637-1.282 5.086 0l2.978 2.634v-30.695h-26.091v30.696l2.983-2.637c.725-.64 1.633-.96 2.543-.96z" fill="#3762cc"/></g><g><path d="m31.512 211.184h-17.512c-3.314 0-6-2.686-6-6v-23.714c0-3.314 2.686-6 6-6h17.512c2.466 0 4.464 1.999 4.464 4.464v26.785c0 2.466-1.999 4.465-4.464 4.465z" fill="#f9cfcf"/></g><g><path d="m113.285 175.47h16.512c3.866 0 7 3.134 7 7v21.714c0 3.866-3.134 7-7 7h-16.512c-2.466 0-4.464-1.999-4.464-4.464v-26.785c0-2.467 1.999-4.465 4.464-4.465z" fill="#f9cfcf"/></g><g><path d="m31.512 213.184h-17.512c-4.411 0-8-3.589-8-8v-23.714c0-4.411 3.589-8 8-8h17.512c3.564 0 6.464 2.9 6.464 6.464v26.785c0 3.565-2.9 6.465-6.464 6.465zm-17.512-35.714c-2.206 0-4 1.794-4 4v23.714c0 2.206 1.794 4 4 4h17.512c1.358 0 2.464-1.105 2.464-2.464v-26.785c0-1.359-1.105-2.464-2.464-2.464h-17.512z" fill="#3762cc"/></g><g><path d="m129.797 213.184h-16.512c-3.564 0-6.464-2.9-6.464-6.464v-26.785c0-3.564 2.899-6.464 6.464-6.464h16.512c4.963 0 9 4.038 9 9v21.714c0 4.961-4.037 8.999-9 8.999zm-16.512-35.714c-1.358 0-2.464 1.105-2.464 2.464v26.785c0 1.359 1.105 2.464 2.464 2.464h16.512c2.757 0 5-2.243 5-5v-21.713c0-2.757-2.243-5-5-5z" fill="#3762cc"/></g><g><path d="m179.409 172.072-55.753-55.753c-1.13-1.13-1.13-2.962 0-4.091l28.299-28.299c1.13-1.13 2.962-1.13 4.091 0l55.753 55.753c1.13 1.13 1.13 2.962 0 4.091l-28.299 28.299c-1.129 1.129-2.961 1.129-4.091 0z" fill="#6bdddd"/></g><g><path d="m180.739 169.011c-.921 0-1.786-.358-2.438-1.009l-50.575-50.576c-1.343-1.344-1.343-3.53-.001-4.874h.001l24.553-24.553c1.303-1.303 3.572-1.302 4.875 0l50.574 50.575c.651.65 1.01 1.516 1.01 2.437s-.358 1.787-1.01 2.438l-24.553 24.552c-.65.651-1.515 1.01-2.436 1.01zm-49.793-54.022 49.792 49.792 23.771-23.77-49.793-49.792z" fill="#e0ebfc"/></g><g><circle cx="167.728" cy="128" fill="#e0ebfc" r="14.401"/></g><g><path d="m175.725 121.029-.891.891c.528.649.912 1.274 1.151 1.877.239.602.332 1.245.277 1.926-.033.528-.131 1.007-.293 1.44-.162.431-.367.771-.615 1.019-.275.275-.613.412-1.015.413-.402 0-.745-.143-1.031-.429-.539-.539-.597-1.18-.173-1.922.506-.869.525-1.762.058-2.681l-3.432 3.432c.495.869.867 1.582 1.118 2.141.25.558.389 1.143.417 1.753.038.643-.061 1.267-.297 1.872-.237.605-.605 1.158-1.105 1.658-.627.627-1.361 1.067-2.203 1.32s-1.721.267-2.64.041c-.918-.226-1.804-.698-2.656-1.419l-2.054 2.054c-.324.324-.593.529-.804.615-.212.085-.425.02-.639-.194-.198-.198-.276-.397-.235-.598s.188-.428.441-.681l2.227-2.227c-.572-.715-.983-1.429-1.233-2.141s-.364-1.401-.342-2.066.142-1.261.359-1.786.504-.966.862-1.324c.264-.264.605-.399 1.023-.404s.781.145 1.089.454c.248.248.399.514.454.8s.011.567-.132.841c-.302.6-.518 1.074-.648 1.423-.129.349-.181.734-.157 1.155.025.421.169.867.433 1.34l3.836-3.836c-.533-.94-.922-1.783-1.167-2.528s-.29-1.503-.136-2.272c.154-.77.594-1.518 1.32-2.244.946-.946 2.022-1.42 3.229-1.423s2.429.516 3.667 1.555l.874-.874c.462-.462.866-.52 1.213-.173.35.35.301.752-.15 1.202zm-6.707 4.612 3.159-3.159c-.599-.324-1.141-.503-1.625-.536s-.954.179-1.411.635c-.434.434-.642.884-.623 1.349.02.464.187 1.034.5 1.711zm-1.402 3.497-3.613 3.613c.665.445 1.317.652 1.955.619s1.18-.272 1.625-.718c.478-.478.701-.995.668-1.551-.033-.555-.244-1.209-.635-1.963z" fill="#6bdddd"/></g><g><path d="m181.455 174.919c-1.307 0-2.536-.509-3.46-1.433l-55.753-55.753c-1.908-1.908-1.908-5.012 0-6.919l28.299-28.299c1.908-1.908 5.012-1.908 6.92 0l55.753 55.753c1.908 1.908 1.908 5.012 0 6.919l-28.3 28.299c-.923.924-2.151 1.433-3.459 1.433zm-27.454-89.838c-.229 0-.458.087-.632.261l-28.299 28.299c-.348.348-.348.915 0 1.263l55.753 55.753c.228.228.493.261.632.261.138 0 .403-.034.63-.261l28.301-28.3c.348-.348.348-.915 0-1.263l-55.753-55.753c-.174-.173-.404-.26-.632-.26z" fill="#3762cc"/></g><g><path d="m248 97.504-51.866-5.645c-3.106-.338-6.248.087-9.153 1.239l-15.587 6.179 14.39 14.39 1.946 1.947 1.093 1.093 11.821 11.821h-28.001c-5.227 0-9.725 4.017-9.971 9.238-.263 5.575 4.18 10.177 9.696 10.177h36.536c3.806 0 7.57-.784 11.06-2.303l16.294-7.091h11.742z" fill="#f9cfcf"/></g><g><path d="m208.906 149.941h-36.536c-3.231 0-6.24-1.288-8.472-3.626-2.23-2.338-3.375-5.408-3.224-8.644.295-6.25 5.552-11.145 11.969-11.145h23.173l-25.837-25.836c-.477-.476-.681-1.16-.545-1.819.137-.659.596-1.206 1.222-1.454l15.588-6.179c3.195-1.267 6.689-1.738 10.107-1.367l51.865 5.645c1.015.11 1.783.967 1.783 1.988v41.043c0 1.104-.896 2-2 2h-11.324l-15.912 6.925c-3.762 1.638-7.751 2.469-11.857 2.469zm-36.262-19.415c-4.206 0-7.782 3.29-7.973 7.333-.101 2.133.653 4.156 2.121 5.695 1.47 1.54 3.45 2.388 5.578 2.388h36.536c3.553 0 7.005-.719 10.262-2.137l16.294-7.091c.252-.109.523-.166.798-.166h9.74v-37.25l-50.082-5.451c-2.773-.302-5.607.082-8.199 1.109l-12.759 5.057 27.099 27.099c.572.572.743 1.432.434 2.179-.31.748-1.039 1.235-1.848 1.235z" fill="#3762cc"/></g><g><path d="m205.331 170.075c-2.209 0-4 1.791-4 4v13.252c0 1.103-.897 2-2 2h-33.328v-6.981c0-.97-1.11-1.522-1.884-.936l-14.498 10.981c-.62.47-.62 1.403 0 1.872l14.498 10.981c.774.586 1.884.034 1.884-.936v-6.981h33.328c5.514 0 10-4.486 10-10v-13.252c0-2.209-1.791-4-4-4z" fill="#f9a7a7"/></g></g></svg>